<?xml version="1.0" encoding="UTF-8"?>
<svg version="1.1" viewBox="0 0 819 819" width="819" height="819" xmlns="http://www.w3.org/2000/svg">
<path transform="translate(389)" d="m0 0h41l25 2 33 5 30 7 36 12 20 8 25 12 20 11 19 12 18 13 14 11 15 13 7 7 8 7 15 16 13 15 12 16 12 17 15 25 12 23 10 22 10 28 7 23 6 26 5 33 2 25v41l-2 25-5 33-7 30-12 36-8 20-12 25-11 20-12 19-13 18-11 14-13 15-7 7-7 8-16 15-15 13-16 12-17 12-25 15-23 12-22 10-28 10-23 7-26 6-33 5-25 2h-41l-25-2-33-5-30-7-36-12-20-8-25-12-20-11-19-12-18-13-14-11-15-13-7-7-8-7-15-16-13-15-12-16-12-17-15-25-12-23-10-22-10-28-7-23-6-26-5-33-2-25v-41l2-25 5-33 7-30 12-36 8-20 12-25 11-20 12-19 13-18 11-14 13-15 7-7 7-8 16-15 15-13 16-12 17-12 25-15 23-12 22-10 28-10 23-7 26-6 33-5z" fill="#020131"/>
<path transform="translate(319,22)" d="m0 0 5 3 1 4v7l12 39 15 52 3 12 20-2h6l-1-2-2-14-5-5 1-5 2-2h6l3 4-1 6-1 1 1 17 2-1h29l17 1 1-15-3-4 1-5 5-3 4 1 2 3v5l-2 3h-3l-1 17 12 1 13 3 2-10 1-6-3-4 1-7 6-2 2-9 4-12 3 1-2 10-3 11 3 4-1 6-4 3h-2l-4 16 16 4 11 3 5-12-1-11 3-3h6l3 4-1 6-3 2h-3l-3 10-2 6 15 6 9 4 3-9 1-4-2-3 1-6 3-2 7 1 2 4-1 5-4 3h-3l-1 5-2 5v3l15 8 2-5 10-14 8-12 12-17 13-19 2-3h2l-1-8 3-4h7l3 3v6l-3 4h-8l-2 5-10 14-8 12-11 16-12 17-4 8 5 2 14 10 6-8-2-8 3-5 1-1h6l5 5-1 6-4 3-4 1-5 8 2 4 10 8 13 12 7 8 3 2 9-9 4-3 1-8 3-3h7l3 4v6l-5 4h-7l-12 12 2 4 7 9 4-2 13-11 10-8 13-11 11-9 13-11 10-8 9-7v-7l5-5 6 1 3 3 1 6-2 4-2 1h-9l-10 9-14 11-14 12-11 9-13 11-11 9-8 7 4 7 10 15 8 14 14-8 13-7-1-6-2-8v-14l3-10 6-10 7-7 12-6 9-2h11l12 3 10 6 6 5 6 10 4 12v17l-5 12-7 9-8 6-8 4-9 2h-10l-12-3-9-5-9-8-4-4-9 6-17 9 2 6 10 24 5 14h4l18-5 3-5 7-1 4 4v6l-3 3h-6l-3-2-8 1-11 3h-4l6 24 4 28 1 19 21-1 3-4h6l4 4v6l-3 3h-6l-4-4h-18l-3-1-1 28-3 24-5 23-3 13 9 3 26 12 1 3-6-1-31-14-4 10-8 19-6 13 1 4 21 14 3 1 2-4 10-8 8-4h2l1 6-12 6-9 10-4 8-2 10 1 12 6 15-5 3-6-12-2-8v-14l5-15 2-3-4-1-21-14-10 16-8 12-11 15 6 7 9 9 8 7 19 19 8 7 13 13 1 3-5-2-8-8-8-7-9-9-4-3v-2l-4-2-16-16-8-7-6-5-14 15-10 10-11 9-13 10-3 2 2 5 7 10 6 2 3 5-2 5-3 2-7-1-2-2v-7-4l-8-11-5 2-10 6h-2l4 10 3 8 7 3 2 3-1 6-4 3h-5l-4-5 1-10-7-14-20 9-18 7h-2l6 18 1 2v6l-3-1-6-17-2-5-12 3-21 5-21 3 2 16 3 3v6l-4 4-6-1-3-4 1-6 3-2v-15l-24 1v29l3 4v6l-2 2h-6l-3-3 1-7 3-1v-31l-4 1-26-2-24-4-26-7-19-7-19-9-3-2-1 4-4 10 1 2v6l-4 3-6-1-2-3v-6l4-3h4l1-5 3-6v-3l-15-9-17-12-10-8-12-11-7-6-7-8-11-12-1-2-4 1-9 8-25 20h-2v2l-11 9-10 8-4 6-7 3-10 9-5 4-2 7-2 2h-5l-3-4 1-5 3-2h5l14-14 2-1 1-8 1-1-1-9-3-12h-11l-9-4-4-1-8 7-8 6-2-4 7-7 6-5h2l-1-8-13 6h-3l-1-3 8-4 7-2 1-11 6-9 5-4 6-2h10l10 5 4 5 3 6v12l-5 10-4 4h-2l5 21 3 3 5-3 9-8 10-8 22-18 12-10h2l-3-6-10-14-9-15-12-23-1-4-16 6-21 9h-3l-1 5-5 3-5-1-2-1-22 8h-4l-2 5-5 3-5-1-4-5v-6l4-4 6-1 4 2 2 3 8-2 16-6 4-6 7-1 5 1 36-15-9-25-6-23-4-24v-4h-105l-2 4-2 2h-8l-4-4v-7l4-4 6-1 5 3 1 4 104-1-1-16v-21l2-24 4-25 5-19 6-19-11-1-32-5-29-4-10 2-3-2-11 2-12 2-2 6-2 1h-8l-4-4-1-6 4-6 7-1 6 5 9-1 13-3 3-3h6l1 3 40 6 36 6 2 1 1-5 5-11-4-2-10-8h-3l-6 2-6-3-2-3v-6l-12-10-11-8h-23v-8l12-8 7-1 5 8 22 18 4 3h8l5 5 1 8 14 10 13-23 8-12 8-11 9-11 2-2-1-4-15-16-8-2-1-7 4-3 5 2 3 8 12 12 3 4v2l4-4h2l2-4h2v-2l9-9-11-14-5-5h-6l-2-2-1-8-10-11-8-10-2-1-2-8h-8l-2 4 1 7 7 2-2 2-6-1-5-5-1-2v-6l3-5 3-2h9l7 6 6 11 13 16v2l7 1 4 9 11 13 2 5 8-6 17-13 15-10 12-7h2l-8-13-1-2-7-3-1-2v-7-2l-8-11-14-17-6-3-1-4 2-4 4-1 3 1 2 9 13 16 9 12 6 1 4 4-1 7v4l7 12 20-9 25-9 24-6 8-1-4-13-13-45-15-49-4-2-1-7z" fill="#020131"/>
<path transform="translate(319,22)" d="m0 0 5 3 1 4v7l12 39 15 52 3 12 20-2h6l-1-2-2-14-5-5 1-5 2-2h6l3 4-1 6-1 1 1 17 2-1h29l17 1 1-15-3-4 1-5 5-3 4 1 2 3v5l-2 3h-3l-1 17 12 1 13 3 2-10 1-6-3-4 1-7 6-2 2-9 4-12 3 1-2 10-3 11 3 4-1 6-4 3h-2l-4 16 16 4 11 3 5-12-1-11 3-3h6l3 4-1 6-3 2h-3l-3 10-2 6 15 6 9 4 3-9 1-4-2-3 1-6 3-2 7 1 2 4-1 5-4 3h-3l-1 5-2 5v3l15 8 2-5 10-14 8-12 12-17 13-19 2-3h2l-1-8 3-4h7l3 3v6l-3 4h-8l-2 5-10 14-8 12-11 16-12 17-4 8 5 2 14 10 6-8-2-8 3-5 1-1h6l5 5-1 6-4 3-4 1-5 8 2 4 10 8 13 12 7 8 3 2 9-9 4-3 1-8 3-3h7l3 4v6l-5 4h-7l-12 12 2 4 7 9 4-2 13-11 10-8 13-11 11-9 13-11 10-8 9-7v-7l5-5 6 1 3 3 1 6-2 4-2 1h-9l-10 9-14 11-14 12-11 9-13 11-11 9-8 7 4 7 10 15 8 14 14-8 13-7-1-6-2-8v-14l3-10 6-10 7-7 12-6 9-2h11l12 3 10 6 6 5 6 10 4 12v17l-5 12-7 9-8 6-8 4-9 2h-10l-12-3-9-5-9-8-4-4-9 6-17 9 2 6 10 24 5 14h4l18-5 3-5 7-1 4 4v6l-3 3h-6l-3-2-8 1-11 3h-4l6 24 4 28 1 19 21-1 3-4h6l4 4v6l-3 3h-6l-4-4h-18l-3-1-1 28-3 24-5 23-3 13 9 3 26 12 1 3-6-1-31-14-4 10-8 19-6 13 1 4 21 14 3 1 2-4 10-8 8-4h2l1 6-12 6-9 10-4 8-2 10 1 12 6 15-5 3-6-12-2-8v-14l5-15 2-3-4-1-21-14-10 16-8 12-11 15 6 7 9 9 8 7 19 19 8 7 13 13 1 3-5-2-8-8-8-7-9-9-4-3v-2l-4-2-16-16-8-7-6-5-14 15-10 10-11 9-13 10-3 2 2 5 7 10 6 2 3 5-2 5-3 2-7-1-2-2v-7-4l-8-11-5 2-10 6h-2l4 10 3 8 7 3 2 3-1 6-4 3h-5l-4-5 1-10-7-14-20 9-18 7h-2l6 18 1 2v6l-3-1-6-17-2-5-12 3-21 5-21 3 2 16 3 3v6l-4 4-6-1-3-4 1-6 3-2v-15l-24 1v29l3 4v6l-2 2h-6l-3-3 1-7 3-1v-31l-4 1-26-2-24-4-26-7-19-7-19-9-3-2-1 4-4 10 1 2v6l-4 3-6-1-2-3v-6l4-3h4l1-5 3-6v-3l-15-9-17-12-10-8-12-11-7-6-7-8-11-12-1-2-4 1-9 8-25 20h-2v2l-11 9-10 8-4 6-7 3-10 9-5 4-2 7-2 2h-5l-3-4 1-5 3-2h5l14-14 2-1 1-8 1-1-1-9-3-12h-11l-9-4-4-1-8 7-8 6-2-4 7-7 6-5h2l-1-8-13 6h-3l-1-3 8-4 7-2 1-11 6-9 5-4 6-2h10l10 5 4 5 3 6v12l-5 10-4 4h-2l5 21 3 3 5-3 9-8 10-8 22-18 12-10h2l-3-6-10-14-9-15-12-23-1-4-16 6-21 9h-3l-1 5-5 3-5-1-2-1-22 8h-4l-2 5-5 3-5-1-4-5v-6l4-4 6-1 4 2 2 3 8-2 16-6 4-6 7-1 5 1 36-15-9-25-6-23-4-24v-4h-105l-2 4-2 2h-8l-4-4v-7l4-4 6-1 5 3 1 4 104-1-1-16v-21l2-24 4-25 5-19 6-19-11-1-32-5-29-4-10 2-3-2-11 2-12 2-2 6-2 1h-8l-4-4-1-6 4-6 7-1 6 5 9-1 13-3 3-3h6l1 3 40 6 36 6 2 1 1-5 5-11-4-2-10-8h-3l-6 2-6-3-2-3v-6l-12-10-11-8h-23v-8l12-8 7-1 5 8 22 18 4 3h8l5 5 1 8 14 10 13-23 8-12 8-11 9-11 2-2-1-4-15-16-8-2-1-7 4-3 5 2 3 8 12 12 3 4v2l4-4h2l2-4h2v-2l9-9-11-14-5-5h-6l-2-2-1-8-10-11-8-10-2-1-2-8h-8l-2 4 1 7 7 2-2 2-6-1-5-5-1-2v-6l3-5 3-2h9l7 6 6 11 13 16v2l7 1 4 9 11 13 2 5 8-6 17-13 15-10 12-7h2l-8-13-1-2-7-3-1-2v-7-2l-8-11-14-17-6-3-1-4 2-4 4-1 3 1 2 9 13 16 9 12 6 1 4 4-1 7v4l7 12 20-9 25-9 24-6 8-1-4-13-13-45-15-49-4-2-1-7zm77 126-25 2-27 5-26 7-25 10-22 11-24 16-10 8-13 11-20 20-11 14-12 17-12 21-10 23-9 27-6 28-2 18v44l3 21 5 23 10 30 14 29 8 14 10 15 10 13 12 14 7 7 1 2h2v2h2v2l8 7 15 12 21 14 22 12 19 8 21 7 20 5 22 3 12 1h14l-2-14v-10l4-23 7-27 12-40 7-21 1-7-3-7-7-6-5 1-13 11-10 9-11 9-12 11-9 7-2 1h-11l-8-4-3-4v-7l3-5 15-14 11-9 11-10 8-7 15-12-1-6-4-6-8-6-5 2-11 9-10 9-11 9-12 11-11 9-9 8-2 1h-10l-9-4-3-3-1-8 5-8 11-9 12-11 11-9 11-10 11-9 10-9-1-5-8-9-5-3-4 1-9 7-14 12-10 9-11 9-12 11-11 9-6 4h-14l-7-3-3-5v-6l5-7 11-9 12-11 11-9 13-12 11-9 13-11 5-2h9l8 3 16 13 7 8 7 13 9 5 15 13 8 11 4 9 2 6 7 4 10 9 6 9 3 10-2 14-3 11v4l41 7 7 1h17l11-4 8-6 6-9 1-4v-32l3-5 9-5 3-3v-7l-4-6-3-4 9-2 7-6-1-8-3-9 1-8 6-4 18-5 6-4 3-6-1-8-13-25-12-21-7-15-1-10 3-11 6-13 1-12-2-21-5-21-8-20-8-15-10-14-11-12-7-7-15-11-21-11-18-6-15-3-9-1h-17l-20 3-17 5-19 9-16 11-13 12-8 8-11 15-10 18-7 19-14 4-10 5-10 8-6 7v-3l8-26 7-16-1-2-9 14-9 17-7 19-4 13 2-13 1-8-2 2-10 27-6 22-5 30-1 14v18l2 24 1 10-3 9v3h-2v-10l-3-24-1-24 2-27 5-26 9-29 8-20 9-19 15-24 13-16 11-12 12-12 14-11 12-9 20-12 19-9 16-6 19-5 24-4v-1z" fill="#FBFBFA"/>
<path transform="translate(399,187)" d="m0 0h23l17 3 21 7 15 8 12 9 13 12 9 11 8 13 6 13 5 18 2 9 2 4v6l-3 4-8 1-5-4-1-2v-6l2-3h2l-2-13-4-12-8-16-10-14-14-14-15-10-8-4-7 14-3 4 5 2 10 6 10 9 10 11 9 16 5 15 2 9v9h-10l-3-13-7-21h-3l6 14 4 16v4l-4 1v5l4 1-2 13-3 10 3-3 3-12 1-7 1-1h10l-3 17-7 18-1 2-5-2-6-3-1 5-8 11-7 8-2-1 2-4 9-10 4-8v-2l-4-2-1 6-9 10-1 2h-2l-2 4-12 8-14 5-9 1v-3l16-4 12-6 6-5h2l2-4 8-9 2-6-3-2-2 5-6 8-2 3-3-1v-2l5-4 6-9-4-1-6 8-3 3-2-1 9-12-4-2-7 9-9 7-16 6-4 1-1-5 15-6 10-7 7-10 4-11 1-7v-9l-4-13-6-9-9-8-7-3-1 4 9 5 8 9 5 11 1 6v9l-4 13-6 8-7 6-11 5-4 1h-14l-11-4-8-6-7-9-4-10-1-7-9 1 5 16 6 9 9 8 10 5 7 2 12 1v4h-15l-13-5-3-1-4 6-8 9-3 4v2l7 6-1 2-12-7-1-3 5-3 9-11 5-6-2-4-7-7-6-10-3-9-1-9-7 1 3 15 2 5-1 4-5-12-2-13-9 1v-3h8l1-3 2 1v2h8v-9l3-12 5-10 11-12 8-5 11-4 11-1-1 3-16 4-10 6-9 10-5 10-2 6-1 13 8 1 2-12 4-8 9-10 6-4 9-3h8l-1-54h-11l-17 4-16 7-12 8-12 11-6 8-4-3 1-4 12-13 10-8 14-8 13-5 20-4h6v-8l-24 4-15 5-3 2h-3l-3-8 15-6 18-4h4v-3z" fill="#FBFBFA"/>
<path transform="translate(290,279)" d="m0 0 11 1 12 5 11 8 7 10 4 9 1 4v18l-4 11-6 8-5 5-6 4-4 29-3 26-10 9-5 4 8-68 4-31-1-9-6-5-4-1h-16v2l4 2 2 3-1 10-10 40-10 38-4 7-7 7-17 13-5 4-6 10-3 11v14l4 30 5 32v6l-2-3-6-14-4-13-5-24-1-8v-18l4-15 11-28 17-50 16-48 7-14 7-7 11-5h13l10 5 7 8 3 6 1 5v12l-2 18 7-9 4-10v-16l-4-11-9-10-10-6-7-2h-12l-13 4-8 6-6 7-4 8-2 11v9l-3 10-2-1-3-12v-8l3-12 6-12 6-7 9-6 9-4z" fill="#FCFCFB"/>
<path transform="translate(259,696)" d="m0 0h86l5 5 1 3v59l-3 5-1 1h-30v19h10l1 3-1 2-14-1 1-23h-56l-4-4v-64z" fill="#FCFCFB"/>
<path transform="translate(201,635)" d="m0 0h2l1 11 6 6 5-9 4-2 12-1 7 8 4 5v6l-5-2-10-10h-7l-3 7-4 2-4 7-5 4 1 4 4 5v2l6-2h11l9 7 2 7 4 4-1 6-11 11-9-1-7-4-3-2-6 6 1 6 1 4-4 1-5-6h-13l-1 4h-3l-2-5v-9l-6 1 1 3h2l-1 6-3 6h-18l-4-8-10-11 1-3 10-7 11-2 1-5-18-1 1-5 4-3h12l11 1 2-5 2-4-8-8-5-6 7-2-2-8h-12l-2 10-10 3-3 1v7l12 2h7v-5h3l8 7-1 5-2 1-10-1-8-3-10-2-3-11 7-6 1-2h2l2-4 3-3 2-4h12l3-1 3 9 1 2h4l1-2 1-11 5 1h13z" fill="#FBFBFA"/>
<path transform="translate(60,327)" d="m0 0h9l11 3 10 6v2l4 2 7 11 2 7v16l-4 10-6 9-27 27-4-2-8-7-14-14-8-9-6-12-1-4v-12l3-10 7-11 11-8 8-3z" fill="#FCFCFB"/>
<path transform="translate(427,264)" d="m0 0 8 4 10 9 6 10 3 11v9l-2 10-4 10-9 11-12 7-8 3h-3l2 4 15-5 8-5 7-6 5-7 5 2-6 9-2 4 7-8 2-3 5 1-4 7-6 7h-2l3 3 2-4 7-10 1-2 4 2-3 7-9 10-5 5-11 7-11 4-10 1v3l15-4 10-4 11-8 1-2h2l2-4 7-8 2-6 5 2-2 6-4 6-9 10-2 2h-3l-5 2 1 2h5v3l-15 8-2 5 3 1 15-7 5-3h3l-1 3-17 9-11 4-15 2v-2l-2-1 1-3-3-2-4 2 1 3v4l-15-1-21-5-14-7-3-2 1-3 8 4h3l1-4-2-1-2-4-5-4 2-4 12-15 3-3 11 5 4 1 15 1v-4h-12l-12-4-10-7-7-7-6-12-2-11 9-1 5 15 6 9 6 5 10 5 4 1h14l11-4 9-6 6-7 4-10 1-5v-9l-2-9-6-11-8-7-7-4z" fill="#010123"/>
<path transform="translate(616,430)" d="m0 0 2 1-2 13-2 4 4 2 4 7v7l-5 10-6 3h-2l-2 10-9 22-10 19-16 22-7 8 2 4 3 3 16-16 10-13 10-15 5-8 6 4 2 2-1 5-7 1-2 4-8 12-9 11-12 13-7 6-2 11-6 7-6 3h-11l-6-3v-2h-2v2l-5 3-1 9-4 5-5 2-14-2 1 6v8l-4 7-6 4-12 2-20 8-18 5-18 3h-11v-6l23-3 23-6 15-6v-2l-3-6v-9l4-7 4-3 3-1h10l5 2 3-3 2-10 6-4h8l5 2 5-4-1-5v-8l4-8 6-5 13-2 10-11 12-17 9-16 8-18 6-16-5-1-5-5-2-3v-12l4-6 4-3 10-2 3-14z" fill="#01012F"/>
<path transform="translate(149,518)" d="m0 0h4l12 24 13 21 10 14v3l-10 8-17 14-11 9-16 13-5 4-4-2-4-13-1-10 6-5 4-9v-12l-5-9-8-5-5-2-2-12v-7l3-4 2-5 10-5z" fill="#020131"/>
<path transform="translate(698,550)" d="m0 0h10l10 3 9 6 7 8 5 13h5l2 2v6l-4 1-7 16-8 9-8 5-10 3h-8l-13-4-10-7-6-9-4-10v-13l4-11 8-10 10-6z" fill="#FCFCFB"/>
<path transform="translate(633,67)" d="m0 0 5 2 18 13 14 11 15 13 7 7 8 7 15 16 13 15 12 16 12 17 15 25 12 23 10 22 10 28 7 23 6 26 5 33 2 25v41l-2 25-5 33-7 30-12 36-8 20-12 25-11 20-12 19-13 18-11 14-13 15-7 7-7 8-16 15-15 13-16 12-17 12-25 15-9 5-2-1 23-14 17-12 17-13 16-13 15-14 19-19 7-8 11-13 13-17 14-20 12-21 8-16 9-19 11-29 8-28 6-29 4-26 2-21 1-21v-16l-1-25-4-33-6-30-8-28-9-26-12-28-8-16-9-17-14-22-14-19-14-17-13-15-27-27-11-9-14-11-15-11z" fill="#FCFCFB"/>
<path transform="translate(627,106)" d="m0 0h10l12 5 10 9 6 10 3 8 1 13-2 10-5 10-8 9-12 7-9 2v5l-5-1-1-60-2 9-1 1h-6l-2-1v2l-9-2-16-1 1 14 4 11 6 8 7 6 10 4 1 5-8-1-11-7-9-10-5-11-1-5v-10l1-3-5-1-1-5 2-3h8l1-6 6-9 7-6 11-5h3v5l-12 6-6 5-5 9-1 2 11 3 5-12 4-5 6-3h5z" fill="#FCFCFB"/>
<path transform="translate(267,46)" d="m0 0 3 1 2 5h7l1-6 6 1 5 3v6l5 3 2 5 7-2 4 6 1 5-5 3h-2l1 13 5 1-3 9-2 3-7-1-5 5h-2l1 7-7 3h-3l-2-6-4-1v6h-7l-4-2 1-5-6-2-4-5-5 2h-3l-5-10 1-3 4-1 1-12-6-2 1-6 3-6 8 1 3-6 4-3-2-5z" fill="#FCFCFB"/>
<path transform="translate(512,707)" d="m0 0h11l10 4 8 7 5 8 2 6 1 10-2 8-6 11-8 7-9 3h-15l-11-6-7-7-4-8-2-8 1-11 6-12 8-7 8-4z" fill="#F9F9F9"/>
<path transform="translate(400,31)" d="m0 0h11l10 4 8 7 4 5 3 7 1 8-2 10-6 10-6 5-8 4-4 1h-12l-10-4-9-8-5-10-1-4v-10l4-10 7-8 8-5z" fill="#FCFCFB"/>
<path transform="translate(720,209)" d="m0 0 6 2 8 7 5 6v2l-13 1-2 4 5-2-2 4-5 5 1 4 3 2 8-1 5 4 4 2-1 3h-6l-3-3-15-1v6l4 4 2 1-1 13v5l-9 3-12 1-5-4-15-3-7-9-4-8-2-9 1-8 6-3 4-4 9 1-2-3-6-2 2-3h5l5 8 4 4 3-1-2-8 3-3 2-4 4-3-3-2 2-5 8 1z" fill="#010130"/>
<path transform="translate(212,264)" d="m0 0 5 2 1 2-15 27-9 20-8 24-5 21-3 26v35l2 19 5 23 9 27 8 18 10 19 8 13 11 18 1 7-4-2-7-8-12-17-8-13-12-23-8-20-5-15-5-21-2-15-1-18v-21l2-23 5-25 6-20 7-19 8-16 8-14z" fill="#FCFCFB"/>
<path transform="translate(371,708)" d="m0 0h6l3 3 1 3-2 5-2 2v74h15v-49l9-15 3 1 8 15 1 4v44h13v-48l6-10h3l5 9v49h10v4h-85v-4l8-1v-73l-5-5 1-6z" fill="#FCFCFB"/>
<path transform="translate(259,696)" d="m0 0h86l5 5 1 3v59l-3 5-1 1h-30v19h10l1 3-1 2-14-1 1-23h-56l-4-4v-64zm1 7v58h84v-57l-1-1z" fill="#FCFCFB"/>
<path transform="translate(493,26)" d="m0 0 5 1 1 5-1 2h-2l-6 20 9 1 8-7 12-5 5-1h12l9 2 8 4 10 9 3 4 4-1 5-2 5 4-1 4-3 3h-5l-1 3h-3v-3l-22 10-5 1-2-2-4 1-2-1h-8l-6 1-1 2-2-4-4-2-13-12-8-6-2 3h-5l-3-3 1-6 1-1h6l1-7 2-6v-7z" fill="#FBFBFA"/>
<path transform="translate(477,341)" d="m0 0 6 2 3 3h-3-2l-7 12-3 4 5-5 5-8 2 1 1-1 4 1-2 5-7 9v3l9-12 2-2v7l-3 6-6 4h-6l-1 6-7-6 10 13v3l-5 1-4 4-5 3-4-1 11-7 3-5-15 9-16 7-12 3-7 1h-23l-21-5-16-7-14-10-6-5 3-4-1-4 8 6-3-5-5-5-3-4 2-1v2h3 1l1-4 8 9 6 5 9 5v2h2l-1 5-5-1-6-3-1 2 5 2 10 5h2v2l7 1 14 3 15 2-1-5-2-2 7-3v2l3 1v4 2l18-4 16-7 9-5 1-2-16 8-9 3-2-4 5-5 11-6h2v-3l-5 1-2-3 6-3h3l3 1 10-12 5-8z" fill="#01012E"/>
<path transform="translate(732,315)" d="m0 0h9l9 4 7 8 2 5v12l-4 9-6 12-1 10h-22l-2-10-8-16-2-6v-9l4-10 7-6z" fill="#FCFCFB"/>
<path transform="translate(62,341)" d="m0 0 10 1 8 4 6 7 3 6 1 9-2 9-6 8-5 4-7 3h-11l-9-4-7-7-4-10v-9l4-10 4-5 10-5z" fill="#FCFCFB"/>
<path transform="translate(700,561)" d="m0 0h8l2 1 2 5 5 2h5 4l3 8 1 8 1 1-1 8-4 8-7 6-4 2-14 2-9-3-5-4v-4l-4-4-4-10v-9l6-10 8-6h2l2 2 3-1z" fill="#010130"/>
<path transform="translate(409,225)" d="m0 0h1v42l-11 2-9 4-9 8-4 6-3 9-2 8h-8l-1-1 1-13 5-12 6-9 7-7 12-6 13-3 1-2-14 3-10 4-9 7-5 4-1-6 8-8 14-7 11-3h5v-3l-16 4-14 7-5 5h-2l-5 10-1-2h-8l-3-3h-2v6l-3 3-2-1-1 3h-4l-4 14v10l-5-1-2-2v-5l-4-1-1-4 3-1 1 4 4-15 4-11 1-1 11-1-3 5-1 4h2l2-5 7-9 11-11 14-8 13-4 5-1h7l-2 3-14 3-16 8-10 9-5 7-1 3h2l2-5 6-7 13-9 11-5 8-2h6v2l2 1v-4z" fill="#010224"/>
<path transform="translate(548,207)" d="m0 0 8 1 5 4 2 4v8l-4 6v4l16 24 8 15 1 8 4 1 3 4v2l13 1 4-6 5-3h10l6 4 4 8-1 9-6 7-6 2-7-1-5-3-4-4-1-6-13-1-5 4h-6l-6-6v-6l5-6-1-5-8-15-10-15-9-12-7-2-5-6-1-8 3-7 4-3z" fill="#01012E"/>
<path transform="translate(155,114)" d="m0 0h16l9 4 9 8 6 12v14l-3 7-2 2-5-1-1-17-5-10-7-5-3-1h-12l-9 5-5 8-1 4v9l3 8 2 4 4 2 7 3 12 1 4 6v2l-5 2h-15l-10-5-4-3-1-3-4-1-5-11-1-4v-12l4-11 6-8 8-6z" fill="#FCFCFB"/>
<path transform="translate(86,456)" d="m0 0 5 1 3 2v5l-4 2-3-1 2 5 3 4 1 3 4 1-2-8h3l6 9v12l-1 1h-5v-7l1-3h-3l1 9-5 1-1 4-4 6-9 4h-8l-10-5-5-4-3 7-5-1-2-3 1-5 6-2 1-14 5-8 6-5 2-1 14-1 3-5z" fill="#FCFCFB"/>
<path transform="translate(461,20)" d="m0 0 7 1 3 3 1 5-3 5-3 2-5 1-6 8v6l-2 3h-2l-1 17-4 11-6 9-7 7-12 6-8 2h-15l-13-4-10-7-7-7-6-12-2-7-1-13-4-4-1-8-5-7-7-3-2-4 1-6 3-3h7l4 4v7l-1 4 4 6 9 11 1 3v13l4 10 4 6 1 3 4 2 10 6 7 2h15l11-4 8-6 7-9 3-9 1-9-1-8 11-12 4-6-1-10z" fill="#FCFCFB"/>
<path transform="translate(516,586)" d="m0 0h8l8 4 1 5 1 6-4 5-5 2-14-2 1 6v8l-4 7-6 4-12 2-20 8-18 5-18 3h-11v-6l23-3 23-6 15-6v-2l-3-6v-9l4-7 4-3 3-1h10l5 2 3-3 2-10z" fill="#01012F"/>
<path transform="translate(509,701)" d="m0 0h16l11 4 10 8 6 9 4 13v8l-3 11-5 8-5 6-9 6-9 3h-17l-12-5-10-9-5-8-2-6-1-14 3-11 5-9 7-7 12-6zm3 6-9 3-8 6-6 8-3 7-1 11 3 11 6 8 7 6 8 4h15l10-4 7-6 7-13 1-9-2-10-4-8-6-7-10-6-4-1z" fill="#01012F"/>
<path transform="translate(260,703)" d="m0 0h83l1 1v57h-84zm6 5 1 47h71l1-1v-45l-1-1z" fill="#010124"/>
<path transform="translate(286,287)" d="m0 0h12l11 4 8 6 8 9 4 11v16l-5 12-7 8h-1l1-11 1-8v-12l-3-9-6-8-8-5-3-1h-13l-12 6-7 8-6 14-9 27h-1v-8l2-3h-2l2-10v-9l2-11 6-11 8-8 10-5z" fill="#01012F"/>
<path transform="translate(511,695)" d="m0 0h12l10 3 11 6 5 4 6 8 4 8 2 8v13l-4 13-6 9-7 7-14 7-9 2h-9l-12-3-10-6-5-4-6-8-4-8-2-7v-16l4-12 7-10 7-6 9-5zm-2 6-11 4-8 6-6 7-4 8-2 9 1 14 4 10 9 10 10 6 6 2h17l11-4 9-7 6-8 4-10 1-5v-8l-4-13-6-9-10-8-11-4z" fill="#FCFCFB"/>
<path transform="translate(656,665)" d="m0 0 3 3 1 7-2 14-4 7-6-1-3-2h-3l-2 3h2l8 5v4l-7 6-4 2h-6l-5-1-1 1h-8l-8-5-5-5 2-4 4-2 6 1-7-6-1 4h-6l-4-9v-10l1-5h16l-2 4v10l4 7 4 2h11l7-6 1-9-2-6-5-6 7 1 4 2 6-5z" fill="#FCFCFB"/>
<path transform="translate(497,62)" d="m0 0 7 6 8 7 5 5 7-3h8l5 1 2-1 1 2 10-3 7-3v2h-2l-1 5-4-1v2l-4 1v4h5l3-2-2 4-4 3-5-1 3-2-4-2-3 4h-7l2-4v-5l-3-2h-6l-2 2v6l3 3h5l-3 6 4 1-3 1-5-2-6 1-9 5h-2l4 5 9 4 10 1 10-2 7-4 1-2-2-1h8v-2h4l2-1-2 5-8 8-12 6-5 1h-9l-13-4-9-6-7-7 1-3 20-10 1-5-4-2-4 1 2 3-8 5h-2l-1-5v-11l-2 1v17l-5 2-2-6v-13l3-12z" fill="#01012E"/>
<path transform="translate(458,206)" d="m0 0 13 7 12 9 14 14 10 15 8 16 4 14 1 7-4 5v6l5 5 3 2h-6l-2-3h-4l-4-23-5-15-7-13-7-10-9-10-13-10-9-5-2 6-1 2 5 2 10 8 13 13 9 14 5 11 3 9 1 8-1 3h-2l-5-19-8-16-8-11-11-11-11-7-7-4 2-4z" fill="#01012F"/>
<path transform="translate(427,264)" d="m0 0 8 4 10 9 6 10 3 11v9l-2 10-4 10-9 11-12 7-8 3h-3l2 7 2 1-6 1h-2v-2l-15-1-11-3v-2l-6 3h-2l-1 5-6 4-1 7-1 2-4-3 2-4 12-15 3-3 11 5 4 1 15 1v-4h-12l-12-4-10-7-7-7-6-12-2-11 9-1 5 15 6 9 6 5 10 5 4 1h14l11-4 9-6 6-7 4-10 1-5v-9l-2-9-6-11-8-7-7-4z" fill="#01012F"/>
<path transform="translate(412,283)" d="m0 0 4 2-4 4-1 3 4 4h6l3-6 5 5 2 5v9l-4 8-7 6-6 2h-9l-8-4-6-7-2-5v-7l3-9 8-7 4-2z" fill="#010131"/>
<path transform="translate(276,61)" d="m0 0 8 2 7 5 4 8v10l-4 8-9 6-9 1-9-4-6-7-1-2v-12l3-6 5-5 5-3z" fill="#010130"/>
<path transform="translate(398,212)" d="m0 0h12v12l-1 16-4-1v-2l-9 1-13 5-11 7-4 2-2 4-6 8h-2l1-4 7-9 9-8 15-7 13-3-4-1-15 4-14 7-10 9-9 10-4 7h-2l1-5 8-11 9-9 11-7 12-5 11-3v-3l4-2h6l-1-1-17 3-12 4-7 4h-2v-3l-2-1v5h2v5h-3v2l-4 2-7-3v-4l-2-1v-2l7-2 3-5h3l1-3 4-2 3-3 15-5z" fill="#010130"/>
<path transform="translate(730,305)" d="m0 0h14l10 4 10 9 4 8 2 8v8l-4 13-7 14-2 8h17l1 3h-21l-1-6 2-9 8-16 2-9-1-10-5-10-7-6-11-4h-8l-9 3-6 4-5 6-4 10v10l5 14 6 10v12l-3-1-3-11h-21l-4 5h-7l-3-3v-6l4-4h5l4 4h20l-7-14-1-4v-14l5-12 4-5 11-7z" fill="#FCFCFB"/>
<path transform="translate(491,64)" d="m0 0 3 2-1 7-1 4v13l1 6 4-2v-17l3-1 1 16 8-5-1-3 2-2 6 1 2 2-1 5-19 10h-2l1 4 10 9 12 5 5 1h9l10-3 9-6 7-8 4-10 2-15 4-1 1 10-2 10-6 12-8 8-9 5-8 3h-17l-11-4-9-6-5-6v-2l-7 1-2 2-4-1-2-3 1-4 4-3h3l-2-10v-10l4-13z" fill="#FCFCFB"/>
<path transform="translate(406,272)" d="m0 0h9l10 3 8 6 6 7 3 7 1 5v8l-3 10-6 9-8 6-13 4-10-1-9-4-6-4-6-8-4-11v-3h5l5 13 5 6 11 5h12l9-4 8-7 3-7 1-9-4-13-5-6-10-5-8-1-10 2-9 6-5 8-3 10-5-1 2-11 5-8 7-7 10-4z" fill="#01012D"/>
<path transform="translate(207,258)" d="m0 0 3 4 3 2-8 11-9 16-8 16-8 23-5 18-4 21-2 23v34h-2v-10l-1-5h-4v-23l3-26 7-30 8-23 8-18 13-22 5-7z" fill="#010123"/>
<path transform="translate(632,111)" d="m0 0 7 1 10 5 8 9 5 10 1 3v17l-4 10-8 9-5-2 1 5-6 4-8 2v-7l9-3 3-10 3-6 8 1 3 2 2-7v-6l-3-5-4-2 1 7h-3l-4-6-6-3-6 1-4 1v-8l4-2v-2h-4v-7l4-1v-4h-3z" fill="#030230"/>
<path transform="translate(453,329)" d="m0 0 5 2-6 9-2 4 7-8 2-3 5 1-4 7-6 7h-2l3 3 2-4 7-10 1-2 4 2-3 7-9 10-4 4-7-1-12 6-14 3-4 4-4-2v-5l-18-2 1-4 3-2 4 1h16v-4l15-5 8-5 7-6z" fill="#010123"/>
<path transform="translate(458,217)" d="m0 0 6 2 12 9 12 11 7 10 8 14 5 13 3 14 1 12h-9l-5-24-7-16-7-11-9-10-2-4-4-2-9-7-5-3 2-6z" fill="#FCFCFB"/>
<path transform="translate(616,430)" d="m0 0 2 1-2 13-2 4 4 2 4 7v7l-5 10-6 3h-2l-2 10-3 6-1-2 2-5v-6l-3 1 1-4-5-1-5-5-2-3v-12l4-6 4-3 10-2 3-14z" fill="#01012F"/>
<path transform="translate(62,341)" d="m0 0 10 1 8 4 6 7 3 6 1 9-2 9-6 8-5 4-7 3h-11l-9-4-7-7-4-10v-9l4-10 4-5 10-5zm-3 7-6 3-6 7-2 9 3 10 8 7 2 1h12l7-4 5-7 1-4v-8l-4-7-5-5-4-2z" fill="#01012E"/>
<path transform="translate(548,207)" d="m0 0 8 1 5 4 2 4v8l-4 6v4l16 24 8 15 1 8 4 1 2 4-4-1v-3l-8 1v2h-2l-1 9-2-1v-6l5-6-1-5-8-15-10-15-9-12-7-2-5-6-1-8 3-7 4-3z" fill="#01012F"/>
<path transform="translate(170,438)" d="m0 0h1l3 17 6 22 10 25 10 20 10 16 10 14 8 10 4 4-6 2-1 3-13-17-10-15-8-13-10-19-9-23-6-20-4-18v-4l3 1 2 9z" fill="#01012D"/>
<path transform="translate(626,131)" d="m0 0 2 2 1 61h-3v-14l-3-4-3-10 1-11 3-5h-4v2l-1 7-1 8-3 1-6-3v-8l-9-3-5-2 3 10 5 8 5 5-3 3-7-7-6-12-2-11 1-7h16l7 2 2 1v-2h8z" fill="#030231"/>
<path transform="translate(401,242)" d="m0 0h6v3l-16 4-14 7-7 7v8l-4 5-5 13-2 15h-8l-1-4-6 1-4-2v-5l2-4v-6l1-3h2v-2h-2l1-8h5l2-8 3-1 2 3 5 1 1-2v2l3-1 5-7 10-8 11-5z" fill="#010131"/>
<path transform="translate(384,349)" d="m0 0h2v2l8 1 18 3v2h-10l-5-1-2 4 15 2 2 1v3l-10-1-9-2-5 2v4h-2l2 5 1 3 11 2 13 2 1 2h-12l-14-3h-3l-3 1v2h-4v2l10 2 17 3 9 1v3l-15-1-21-5-14-7-3-2 1-3 8 4h3l1-4-2-1-2-4-1-8 3-4 5-3 1-4h2l1-2z" fill="#010131"/>
<path transform="translate(477,341)" d="m0 0 6 2 3 3h-3-2l-7 12-3 4 5-5 5-8 2 1 1-1 4 1-2 5-7 9v3l9-12 2-2v7l-3 6-6 4h-6l-1 6-7-6 10 13v3l-5 1-4 4-5 3-4-1 11-7 3-5-8 5-3-1 5-5h2v-2h-4l-2 4h-4l1-3 4-2 1-2-16 8-9 3-2-4 5-5 11-6h2v-3l-5 1-2-3 6-3h3l3 1 10-12 5-8z" fill="#010124"/>
<path transform="translate(329,360)" d="m0 0 4 2 9 10 8 7 10 7 16 8 18 5 6 1h23l15-3 14-5 13-7 6-4h2l-2 5-10 7-19 9-18 4h-28l-17-4-18-8-11-7-11-9-7-7-5-7z" fill="#FCFCFB"/>
<path transform="translate(739,417)" d="m0 0h9v64h-9v-47h-47l-2 4-6 1-3-3-1-3 3-5 5-1 4 3 47 1z" fill="#FCFCFB"/>
<path transform="translate(409,248)" d="m0 0h1v19l-11 2-9 4-9 8-4 6-3 9-2 8h-8l-1-1 1-13 5-12 6-9 7-7 12-6 13-3z" fill="#010130"/>
<path transform="translate(106,567)" d="m0 0 9 1 8 7 2 6-1 9-6 7-5 2h-9l-6-4-4-6-1-9 4-8 6-4z" fill="#01012F"/>
<path transform="translate(157,108)" d="m0 0h12l12 4 6 4 8 8 5 9-1 3-2-4-5 1-6-9-9-7-6-2h-16l-10 4-8 7-6 12-1 4v12l4 11v2l-3 3 3 1-2 7-5-1-5-10v-6l2 3 5 10v-3l-5-14v-17l4-12 6-8 7-6 8-4z" fill="#01012F"/>
<path transform="translate(187,651)" d="m0 0h6l4 5-2 5-2 2 1 9 4-1 5 3 2 4-1 5-5 5-4 1v11l-1 1h-7l-1-2-1-10-5-2-4-6v-5l3-4 6-1 3 1-2-10-2-3 1-6z" fill="#020130"/>
<path transform="translate(398,17)" d="m0 0h15l12 4 11 7 7 8 3 6-4 4h-3l-4-7-5-5-5-4-9-4-4-1h-13l-10 3-11 7-7 11-2 2-5-6 4-7 8-9 13-7z" fill="#FCFCFB"/>
<path transform="translate(161,426)" d="m0 0 2 1 5 29 6 22 7 19 8 18 11 20 7 10 9 13 11 14 7 11 5 10-1 2-7-10-8-10-10-13-10-14-13-21-8-16-9-21-7-22-5-23-2-18z" fill="#FCFCFB"/>
<path transform="translate(204,258)" d="m0 0h3l-1 6-7 10-10 17-10 23-7 22-6 26-3 26-1 29h-3l-1-6v-17l2-24 5-26 7-24 7-18 9-19 9-15z" fill="#FCFCFB"/>
<path transform="translate(437,42)" d="m0 0 2 1v3l5-2 2 6-3 3 1 11-3 12-5 9-7 7-12 6-4 1h-15l-11-4 1-2 5-3 6 1h12l9-3 8-6 6-10 2-12-2-11h6l2 1-1-2h-5z" fill="#01012E"/>
<path transform="translate(427,264)" d="m0 0 8 4 10 9 6 10 3 11v9l-2 10-4 10-9 11-12 7-12 4-2-1v-4l-9 1-2-4h15l11-4 9-6 6-7 4-10 1-5v-9l-2-9-6-11-8-7-7-4z" fill="#010123"/>
<path transform="translate(603,480)" d="m0 0h2l1 6-2 7-3 9-9 19-10 16-10 13-7 8 4 8-2 1-3-2v-3h-2v-3l-14-2v-1l10-1 10-11 12-17 9-16 8-18 4-11z" fill="#010126"/>
<path transform="translate(348,355)" d="m0 0 5 5 7 6 3 3 9 5v2h2l-1 5-5-1-6-3-1 2 5 2 10 5h2v2l7 1 14 3-4 2h-8v-2l-3 1v-2h-9l-1 2-5-1-12-7-13-10v-3l2-2-1-4 8 6-3-5-5-5-3-4 2-1v2h3 1z" fill="#01012F"/>
<path transform="translate(74,469)" d="m0 0 9 2 6 4-1 4-3 1v-2l-6-3h-9l-4 4-1 5 1 1 2-4 3-1h13l5 2v2l-17 1v6l1 1 7-1 9-1-2 5-6 5-3 1h-8l-6-3-5-6-1-2v-10l3-5 5-4z" fill="#070733"/>
<path transform="translate(509,701)" d="m0 0h16l11 4 10 8 5 7v2l-4-2-1 6-4-5-5-6-10-6-4-1h-11l-9 3-8 6-5 5v-2l-4 2-2 3h-2l1 8-3 5-2 4v-7l3-11 5-9 7-7 12-6z" fill="#01012F"/>
<path transform="translate(260,703)" d="m0 0h83l1 4-6-2h-6l-2 1h-27l-5-1-16-1v2l14 1v1h-30l1 5v43l-2-1-2-8-3 1z" fill="#010125"/>
<path transform="translate(396,751)" d="m0 0h12v44h-11l-1-1z" fill="#14133F"/>
<path transform="translate(156,105)" d="m0 0h14l10 3 13 9 7 9 4 10 1 4v10l-3-1-2-13-6-12-9-9-12-5-4-1h-12l-10 3-10 6-6 7-4 8-2 7v17l5 14 1 5-5-5-5-13-1-6v-8l3-12 5-10 9-9 14-7z" fill="#FCFCFB"/>
<path transform="translate(170,680)" d="m0 0 4 2 3 4-1 5-7 6-2 3h-2l-2 4 5 2 3 5-4 5h-10l-2-5v-4l-5-2-3-3-1-4 3-4 8-2h8l6-5z" fill="#01012E"/>
<path transform="translate(93,163)" d="m0 0h8l4 5 2 7 15 14 8 7 12 11 1 2 4-1 5 3 1 4-4 4-5-1-2-2-1-5-8-7-26-24-3-3-10 1-4-4-1-4 2-5z" fill="#FCFCFB"/>
<path transform="translate(699,490)" d="m0 0h85v7l-43 1-12 7-8 6v-4l9-7 8-4 6-1v-3h-45z" fill="#FCFCFB"/>
<path transform="translate(113,231)" d="m0 0 5 1 3 3 30 2 6-1 3-3 5-1 5 3 2 3-1 7-3 3-6 1-5-4-1-4-35-2-2 4-5 2-5-3-1-6z" fill="#FCFCFB"/>
<path transform="translate(777,425)" d="m0 0h8v49l-1 7h-7l-1-40v-15z" fill="#FCFCFB"/>
<path transform="translate(59,239)" d="m0 0 3 3 11 19 16 1 1 8h-22l-7-10-11-17 3-2z" fill="#FCFCFB"/>
<path transform="translate(588,705)" d="m0 0 3 1 9 16 1 5 1 3 7 3 3 4-1 7-5 4-7-1-3-3v-7l3-6-3-5-3 1-8-11-3-6z" fill="#FCFCFB"/>
<path transform="translate(369,221)" d="m0 0 2 1-5 3-1 2h-3l-2 5-2 2-5 1 2 6 7 2 3-1v-2h3l-1-3 1-2h-2v-5l3 1-1 3 14-7 16-4 9-1v2l-10 2v2h8v1l-16 3-13 5-10 6-10 9-2 1 1-4-2-6-6-2-4 1-2 5-3 1v2h-2l2-4 9-10 10-8z" fill="#010123"/>
<path transform="translate(606,315)" d="m0 0 3 1 7 21 4 19 2 18v8l-5 1-1-1-3-26-4-19-6-20z" fill="#01012E"/>
<path transform="translate(160,643)" d="m0 0 8 1 2 4v4l-6 2-1 5-2 5-1 4h-7l-12-3-1-5 4-4 10-2 1-7 1-3z" fill="#1E1D48"/>
<path transform="translate(457,577)" d="m0 0 6 1 6 5 1 6-3 7-5 3h-8l-4-2-3-6 1-8 5-5z" fill="#010130"/>
<path transform="translate(458,206)" d="m0 0 13 7 1 3-8-2-5-4-3 6 1 5-2 4 5 2 10 8 13 13 9 14 5 11 3 9 1 8-1 3h-2l-5-19-8-16-8-11-11-11-11-7-7-4 2-4z" fill="#01012B"/>
<path transform="translate(583,634)" d="m0 0 6 1 2 3v8l11 13v2l7-3 3-2h4l3 6v5l-5 2h-8l-2-4-4-2-11-12-1-2-8-2-2-3v-6l3-3z" fill="#FCFCFB"/>
<path transform="translate(208,681)" d="m0 0 3 1v6l7 6v-7l2-2h7l3 4v5l5 1-2 4-7 7h-6l-17-17z" fill="#13133D"/>
<path transform="translate(520,95)" d="m0 0 7 1 5 1 1 12 13-5h2l-2 4-9 4-11 1-9-2-8-5-2-4 10-5z" fill="#FCFCFB"/>
<path transform="translate(497,62)" d="m0 0 4 3 3 5 2 1v3l4 1 4 5-5 2h-3v8l-5 2-1-5v-11l-2 1v17l-5 2-2-6v-13l3-12z" fill="#01012F"/>
<path transform="translate(625,649)" d="m0 0 7 1 9 1 8 5 3 4v2l-10 6-4-2-6-2-7-1-4-8 1-4z" fill="#FCFCFB"/>
<path transform="translate(625,95)" d="m0 0h12l13 4 10 7 6 5 9 13 4 11v6l-4 1-5-15-7-11-10-9-12-5-16-2z" fill="#FCFCFB"/>
<path transform="translate(716,518)" d="m0 0 6 1 25 11 7 3h3l3-3h7l5 4v7l-5 5h-6l-5-5-1-3-36-16-4-2z" fill="#FCFCFB"/>
<path transform="translate(742,605)" d="m0 0 5 2-2 4-7 9-10 8-12 5-5 1h-12l-13-4 2-4 2-1 11 3h9l13-4 10-7 6-7z" fill="#FCFCFB"/>
<path transform="translate(262,746)" d="m0 0 2 1 2 8h58v1h7v4h-65v-3l-3 1-2-3-1-7h2z" fill="#010130"/>
<path transform="translate(617,391)" d="m0 0 5 1-1 17 3 1 2 4-1 7-4 4h-8l-4-3-1-8 2-4 3-2h3v-16z" fill="#010123"/>
<path transform="translate(292,727)" d="m0 0h8l1 22 1-7h8v10h-27l-1-1v-7h8v6h2z" fill="#010124"/>
<path transform="translate(378,306)" d="m0 0h5l5 13 5 6 11 5h12l9-4 4 1 1 3-4 3-13 4-10-1-9-4-6-4-6-8-4-11z" fill="#01012B"/>
<path transform="translate(501,66)" d="m0 0 8 6 6 5 2 3 7-3h8l5 1 2-1 1 2 10-3 7-3v2h-2l-1 5-4-1v2l-4 1v4h5l3-2-2 4-4 3-5-1 3-2-4-2-3 4h-7l2-4v-5l-3-2h-6l-2 2v6l1 3-6 2-4-1 3-2-1-5-6-1-1 2 2 2-5 2v-7l7-2-5-4v-2h-2v-3l-4-2z" fill="#010123"/>
<path transform="translate(63,356)" d="m0 0 6 1 5 5 1 6-3 5-4 3h-8l-5-4-1-2v-7l4-5z" fill="#01012E"/>
<path transform="translate(639,427)" d="m0 0h5l1 4-4 24-5 17-3 7h-5l1-7 5-18 4-20z" fill="#01012E"/>
<path transform="translate(409,248)" d="m0 0h1v19l-11 2-8 2v-3l-2-1-1-4h-5v2l-4 1 5-5 10-5 13-3z" fill="#010123"/>
<path transform="translate(92,492)" d="m0 0 4 2v9l2 2-2 1v7l-5 4h-2v-2l4-2 1-4-2-3-5 1-5 7-3 1-1-4-6-1-3 1-1 3-8 3-3-1 1-2 5-1 1-4-5-4-2-1-1-4h4l10 5h8l9-3 2-4z" fill="#01012C"/>
<path transform="translate(662,143)" d="m0 0h1v13l-4 10-8 9-5-2 1 5-6 4-8 2v-7l9-3 3-10 3-6 8 1 3 2 2-7v-6l-1-3h2z" fill="#01012B"/>
<path transform="translate(626,131)" d="m0 0 2 2 1 61h-3v-14l-3-4-3-10 1-11 3-5h-4l-2-6h-2v-2h8z" fill="#01012D"/>
<path transform="translate(726,444)" d="m0 0h8v37h-8z" fill="#FCFCFB"/>
<path transform="translate(428,278)" d="m0 0 4 2 7 8 3 7 1 5v8l-3 10-6 9-4 3-1-3h-2l2-4 5-6 2-5 1-9-4-13-5-6-2-1 1-4z" fill="#010125"/>
<path transform="translate(26,438)" d="m0 0h105l5 28 2 11-4-2-1-9-2-11-1-5v-10l-103 1-3 3-2-1z" fill="#010123"/>
<path transform="translate(79,206)" d="m0 0 4 5 3 4 9 1-5 7 3 7-9-1-5 7h-1l-2-12-9-3v-2l9-2 1-1z" fill="#FCFCFB"/>
<path transform="translate(342,275)" d="m0 0 1 4h2l-2 5v7l-3 8 6 2 1-2 3 2-2 3h-8v3l9-1 5 19 2 6h-2l-1 2-4 2-3-11 2-2v-4h-2v-4h-2l-6-7v-14l3-14z" fill="#010123"/>
<path transform="translate(595,152)" d="m0 0 5 1 9 4 1 8 6 5 2 9-5-1-9-6-5-6-4-9z" fill="#FCFCFB"/>
<path transform="translate(753,440)" d="m0 0h7v41h-7z" fill="#FCFCFB"/>
<path transform="translate(546,719)" d="m0 0 6 3 4 13v8l-3 11-5 8-2-4v-4h2v-15l-3-17z" fill="#01012F"/>
<path transform="translate(532,55)" d="m0 0 7 1 8 6 7 6-4 3-10 5h-2l-5-6-1-7z" fill="#010130"/>
<path transform="translate(765,438)" d="m0 0h6v43h-6l-1-42z" fill="#FCFCFB"/>
<path transform="translate(427,264)" d="m0 0 8 4 10 9 6 10 3 11v9l-1 7h-1l-1-10-2 2-3-15-6-11-8-7-7-4z" fill="#010126"/>
<path transform="translate(405,751)" d="m0 0h3v44h-11l-1-1v-32h1l2 16 7 1-1-3h2l-1-4 1-19h-2z" fill="#010124"/>
<path transform="translate(775,437)" d="m0 0 2 4v40h7v1h-8l-3-3-2 2v-43z" fill="#010123"/>
<path transform="translate(109,202)" d="m0 0 3 1 10 18 1 5-1 1h-6l-8-10-6-7-3-3z" fill="#FCFCFB"/>
<path transform="translate(701,449)" d="m0 0h7v32h-7l-1-4v-27z" fill="#FCFCFB"/>
<path transform="translate(622,483)" d="m0 0h7l5 5v7l-5 5h-7l-5-5 1-9z" fill="#010130"/>
<path transform="translate(108,574)" d="m0 0 7 3 2 3-1 9-5 3h-6l-5-6v-6l5-5z" fill="#FCFCFB"/>
<path transform="translate(748,435)" d="m0 0 4 5 1 2v39h7v1l-6 1-2-1v-3h-2l-1 3h-9v-1h8l-1-40z" fill="#010223"/>
<path transform="translate(605,616)" d="m0 0 6 2 2 7v5l8 10 2 4v3l-4-1-10-15-7-1-3-3v-6l3-4z" fill="#FCFCFB"/>
<path transform="translate(225,236)" d="m0 0h7l4 4 1 5-3 6-7 2-5-3-2-3v-7z" fill="#FCFCFB"/>
<path transform="translate(529,47)" d="m0 0h9l11 4 9 7 4 5-1 3-6 1-7-8-6-4-12-3z" fill="#01012C"/>
<path transform="translate(508,311)" d="m0 0 5 1-1 12-3 10-6 2-3-1v-2h-2l-1-5-1 2-2-1 3-12h1v5h5l-2 10h2l4-20z" fill="#010123"/>
<path transform="translate(762,439)" d="m0 0 3 1v41l-1-3h-4l-1-4v-24l1-9z" fill="#010124"/>
<path transform="translate(603,480)" d="m0 0h2l1 6-2 7-3 9-3 7-3 1-3 7-2 2-3-2 2-6 8-18 4-11z" fill="#01012E"/>
<path transform="translate(714,450)" d="m0 0h7v25l-1 7-6-1z" fill="#FCFCFB"/>
<path transform="translate(320,381)" d="m0 0 4 1 10 10 14 10 16 9 9 4-1 2-7-1-19-10-12-9-10-9-4-4z" fill="#FCFCFB"/>
<path transform="translate(312,91)" d="m0 0 3 1 7 18 1 3 6 3 1 2v6l-3 3h-6l-3-3v-6l1-4-7-19z" fill="#FCFCFB"/>
<path transform="translate(509,701)" d="m0 0h16v1l-19 2-4 1-1 3-5 2 1 5-6 7-1-2-4 2-2 3h-2l1 8-3 5-2 4v-7l3-11 5-9 7-7 12-6z" fill="#010123"/>
<path transform="translate(53,462)" d="m0 0 4 3h6l1 2-7 6-3 6-1 14-5 1 1-7 1-6-1-3-1 1-1 13-2 2-2-1v-13l1-3h2l1-2h5l1-6-1-3z" fill="#010124"/>
<path transform="translate(346,785)" d="m0 0 6 2 2 4v6l-4 4-5 1-5-3-1-2v-7l3-4z" fill="#FCFCFB"/>
<path transform="translate(221,162)" d="m0 0 6 2 3 4-1 6-4 4h-6l-5-5 1-7 3-3z" fill="#FCFCFB"/>
<path transform="translate(161,147)" d="m0 0h6l3 3 1 6 4 2-4 2-4 4-7 1-2-2-4-2 1-4 4 4 6 1-5-3-2-4 1-6z" fill="#010123"/>
<path transform="translate(151,654)" d="m0 0 5 1-1 6 3 2v-2l3 1v5l-1 1h-7l-12-3-1-5 4-4z" fill="#01012E"/>
<path transform="translate(724,541)" d="m0 0 4 2 9 7 7 10 3 7-1 4-3 1-6-12-9-10-7-5v-2z" fill="#FCFCFB"/>
<path transform="translate(161,661)" d="m0 0 8 6 2 2-1 5-2 1-10-1-8-3-10-2-1-6h2v2l12 2h7v-5z" fill="#FCFCFB"/>
<path transform="translate(24,471)" d="m0 0 5 2 2 3v7l-5 4-7-1-3-4 1-7 3-3z" fill="#FCFCFB"/>
<path transform="translate(405,228)" d="m0 0 2 1v2l-17 3-13 5-11 7-12 12-7 11h-2l1-5 8-11 9-9 11-7 12-5 11-3z" fill="#FCFCFB"/>
<path transform="translate(381,345)" d="m0 0 16 6 15 1 1-2h4l1 5 2 1-6 1h-2v-2l-15-1-11-3v-2l-6 3h-2l-1 5-6 4-1 7-1 2-4-3 2-4 12-15z" fill="#010123"/>
<path transform="translate(74,469)" d="m0 0 9 2 6 4-1 4-3 1v-2l-6-3h-9l-4 4-2 5-4 1-2 1 1-9 7-6z" fill="#010223"/>
<path transform="translate(120,496)" d="m0 0h7l3 4-1 6-4 3-6-1-4-1-10-2v-3h11l3-5z" fill="#FCFCFB"/>
<path transform="translate(282,704)" d="m0 0h16l9 1h23l2-1 9 1 2 1-1 3-46-1-22-1v-1h8z" fill="#01012F"/>
<path transform="translate(708,449)" d="m0 0 2 3v2h2l1-5h8v1h-7v31l-1-2h-3l-2 2z" fill="#010123"/>
<path transform="translate(551,567)" d="m0 0 6 1 4 5-1 6-4 3h-6l-4-4v-7z" fill="#FCFCFB"/>
<path transform="translate(191,71)" d="m0 0h6l4 4v7l-5 4h-5l-4-3v-8z" fill="#FCFCFB"/>
<path transform="translate(258,694)" d="m0 0h8v2l-9 2-2 3v64l3 4-4 1-2-7v-31l-1-31 2-3h2v-2z" fill="#010123"/>
<path transform="translate(212,655)" d="m0 0h4l-2 6 3 1-6 7-1 3 4 2 12-1 5-3 1 2-1 2h-2l-1 4-2-1h-11l-6 1-4-6-2-2 1-4 5-4z" fill="#01012C"/>
<path transform="translate(359,378)" d="m0 0 5 2 12 6h2v2l7 1 14 3-4 2h-8v-2l-3 1v-2h-9l-1 2-5-1-9-5 1-6z" fill="#010126"/>
<path transform="translate(547,748)" d="m0 0h1v6h-2l1 9-4 5-9 6-5 2-4-1 3-2-1-2-3-1 10-4 6-5z" fill="#010124"/>
<path transform="translate(603,454)" d="m0 0h6l5 6-2 6-4 3-6-1-3-5 1-6z" fill="#FCFCFB"/>
<path transform="translate(377,267)" d="m0 0h1v7h-3l-1 4-3 4-3 7v6l1 3-2 1 5 1v-2h-2v-2h2l2-4-1 10-1 2h-8l-1-1 1-13 5-12 6-9z" fill="#010123"/>
<path transform="translate(217,661)" d="m0 0 2 1 2 5h5l4-3 2 2v5l-4 2-8 2h-6l-4-3 1-4z" fill="#FCFCFB"/>
<path transform="translate(58,487)" d="m0 0 5 5v2l5 1 1 1 4 2-1-6h6l5-2h6l-2 5-6 5-3 1h-8l-6-3-5-6z" fill="#010123"/>
<path transform="translate(267,703)" d="m0 0h76l1 4-6-2h-6l-2 1h-27l-5-1-16-1v2h-8l-7-2z" fill="#010223"/>
<path transform="translate(168,383)" d="m0 0h1v43h-2v-10l-1-5h-4v-23l1-2h2v8h2z" fill="#010123"/>
<path transform="translate(493,608)" d="m0 0h6l4 3 1 6-4 5-5 1-5-4-1-5 3-5z" fill="#FCFCFB"/>
<path transform="translate(370,719)" d="m0 0 4 2v73l-1 1h-8v4l-3-1 1-3 1-1h8v-71l-2-1z" fill="#010223"/>
<path transform="translate(260,749)" d="m0 0h1l2 8h3v3l65-1v-2h-8l1-2h13l-1 5 8-1v2h-84z" fill="#010123"/>
<path transform="translate(425,326)" d="m0 0 4 1 1 3-4 3-13 4-10-1-5-3 2-2 16-1z" fill="#01012F"/>
<path transform="translate(469,338)" d="m0 0 1 4-6 8-5 6h-2l-2 4-12 8-14 5-9 1v-3l16-4 12-6 6-5h2l2-4 8-9z" fill="#FCFCFB"/>
<path transform="translate(404,233)" d="m0 0h3v3l-15 3-16 8-6 5h-2l-2 4-6 8h-2l1-4 7-9 9-8 15-7z" fill="#FCFCFB"/>
<path transform="translate(312,242)" d="m0 0h7l3 5v5l-5 4-6-1-3-4 1-7z" fill="#FCFCFB"/>
<path transform="translate(619,409)" d="m0 0 3 2v3h4l-1 7-7 3v-2h-6l-2-1-1-4 1-4 7-3z" fill="#010131"/>
<path transform="translate(169,354)" d="m0 0 3 2-1 13-4 25h-2l-1-16 1-8h2v-10z" fill="#010131"/>
<path transform="translate(493,344)" d="m0 0 3 1 1 2 4-3 7 1 2 2v7l-4 3h-5l-4-5v-3l-4-1z" fill="#FCFCFB"/>
<path transform="translate(398,274)" d="m0 0 4 1h-3v4l-7 2-3 3 1 3-5 10-2 7-5-1 2-11 5-8 7-7z" fill="#01012C"/>
<path transform="translate(177,704)" d="m0 0 2 2v8l1 5h3l1-4 2-1h11l3 4h-16l-1 4h-3l-3-4-4 4h-9l1-2 6 1 4-12-3 1-1-5z" fill="#010123"/>
<path transform="translate(482,248)" d="m0 0 4 4 8 14 6 16 1 8-1 3h-2l-5-19-8-16-5-8h2z" fill="#010125"/>
<path transform="translate(198,246)" d="m0 0 2 2-3 4-4 4-2 6-1 4h3v2l4-3v-3l5-2v-2h2l-2 4-8 12h-2l-1-4-5-4-2 4-3 5-2-1 2-5 12-17z" fill="#010123"/>
<path transform="translate(640,142)" d="m0 0 5 1 2 3v6l-4 4h-6l-3-3v-7z" fill="#010124"/>
<path transform="translate(348,355)" d="m0 0 6 6v17h-2v2l-4-2-5-5 3-3-1-4 8 6-3-5-5-5-3-4 2-1v2h3 1z" fill="#010123"/>
<path transform="translate(333,261)" d="m0 0 4 1-3 4-5 16-2 1-5-1 1-8 4-10h3v-2z" fill="#010123"/>
<path transform="translate(124,666)" d="m0 0 6 1 2 3v6l-4 4h-5l-4-5 1-6z" fill="#FCFCFB"/>
<path transform="translate(193,106)" d="m0 0 5 2 8 9 6 12 3 14v6l-3 1-3-17-5-12-7-9-4-5z" fill="#FCFCFB"/>
<path transform="translate(615,288)" d="m0 0h6l4 5-1 5-3 3h-6l-4-4 1-7z" fill="#FCFCFB"/>
<path transform="translate(112,461)" d="m0 0 7 1 3 5-1 4-3 3h-6l-4-4 1-7z" fill="#FCFCFB"/>
<path transform="translate(115,319)" d="m0 0 6 2 2 3-1 6-4 3-6-1-3-5 2-6z" fill="#FCFCFB"/>
<path transform="translate(258,769)" d="m0 0h56v20h-1l-1-16-4-2-10 1h-28l-12-2z" fill="#010223"/>
<path transform="translate(401,219)" d="m0 0h6l-1 4-17 3-12 4-7 4h-2l1-4 14-7z" fill="#FCFCFB"/>
<path transform="translate(456,406)" d="m0 0h2v2l-6 3 4 2-16 6h-3v-2h-10l-1 1h-7l-1-2 19-3z" fill="#010123"/>
<path transform="translate(114,264)" d="m0 0 8 6 2 3 1 7 6 3 6-2h3l12 10 2 1-2 4-3-5-6-3v-2l-8-1-3 3-8-2v-2h-2l-1-11-5-5z" fill="#010123"/>
<path transform="translate(456,690)" d="m0 0h2l1 7 4 2 2 5-4 5h-6l-3-3 1-7 2-2z" fill="#FCFCFB"/>
<path transform="translate(556,73)" d="m0 0 1 2h-2l-1 5-4-1v2l-4 1v4h5l3-2-2 4-4 3-5-1 3-2-4-2-3 4h-7l3-6 2 1 2-2 1-3z" fill="#010123"/>
<path transform="translate(282,715)" d="m0 0h8v17h-8z" fill="#020132"/>
<path transform="translate(667,519)" d="m0 0h6l4 5-1 5-3 3h-6l-3-3v-7z" fill="#FCFCFB"/>
<path transform="translate(525,78)" d="m0 0h6l4 3-1 7-5 3-5-1-2-3v-6z" fill="#FCFCFB"/>
<path transform="translate(92,492)" d="m0 0 4 2v9l2 2-2 1v7l-5 4h-2v-2l4-2 1-4-2-3-5 1-4 2-2-2 4-5h2l2-4z" fill="#010124"/>
<path transform="translate(569,543)" d="m0 0 2 2-3 3h3l2 1-8 9 4 8-2 1-3-2v-3h-2v-3l-14-2v-1l10-1z" fill="#010123"/>
<path transform="translate(682,472)" d="m0 0 7 1 2 4-1 5-3 3h-5l-4-5 1-6z" fill="#FCFCFB"/>
<path transform="translate(401,242)" d="m0 0h6v3l-16 4-14 7-11 11-1-2 5-7 10-8 11-5z" fill="#FCFCFB"/>
<path transform="translate(214,365)" d="m0 0 2 4-1 29 1 28h-2l-2-24v-18l1-14z" fill="#010223"/>
<path transform="translate(187,651)" d="m0 0h6l4 5-2 5-4 4-4-1-3-5 1-6z" fill="#010223"/>
<path transform="translate(462,375)" d="m0 0h3l-1 3-17 9-11 4-15 2v-3l19-4 16-7z" fill="#FCFCFB"/>
<path transform="translate(57,359)" d="m0 0 8 1-4 2-1 7 2 2 6 2 3-3 3 1-6 5h-8l-5-4-1-2v-7z" fill="#01012A"/>
<path transform="translate(111,360)" d="m0 0 7 1 2 3v5l-5 4-6-2-2-5 3-5z" fill="#FCFCFB"/>
<path transform="translate(731,609)" d="m0 0h1v5l-4 2-3 4-6 1-2 2h-4v2h-7l-1 1h-7l-1-5h12l12-4 9-7z" fill="#010223"/>
<path transform="translate(635,579)" d="m0 0 5 1 2 2v7l-4 3-5-1-3-3v-5z" fill="#FCFCFB"/>
<path transform="translate(107,401)" d="m0 0 5 1 3 3v5l-5 4-5-1-2-2v-7z" fill="#FCFCFB"/>
<path transform="translate(411,746)" d="m0 0h3l1 5v27l-1 16h12v1h-13l-1-3v-44z" fill="#010223"/>
<path transform="translate(380,711)" d="m0 0h2l1 6-1 5h-4l1 46-1 27h-1l-1-74 3-3z" fill="#010223"/>
<path transform="translate(103,362)" d="m0 0 2 3 2-3 2 1-1 4 2 4 3 2-7-1-5 14-2 1-1 3-2 2-1 4h-2v2l-7 4-2-1 9-9 6-9 3-9z" fill="#010123"/>
<path transform="translate(386,378)" d="m0 0 10 3 6 1v2l-9 3-5 1-10-3v-2h4v-2z" fill="#010125"/>
<path transform="translate(349,766)" d="m0 0 2 1-1 3-7 2h-16l-8-2v18h-2v-19l30-1z" fill="#010223"/>
<path transform="translate(692,434)" d="m0 0h47v8l-2-4-5-1-2 1v-2l-38 1z" fill="#010223"/>
<path transform="translate(94,579)" d="m0 0 3 3-1 4 4-2 4 6 6 2-2 2h-5l-1 1 4 2v2l-6-2-5-6-2-5v-6z" fill="#010124"/>
<path transform="translate(194,607)" d="m0 0 4 1 3 3v5l-3 3h-6l-3-4 1-5z" fill="#FCFCFB"/>
<path transform="translate(225,448)" d="m0 0h1v5l-3 8v21l1 16h2v15h-1l-4-26-1-10v-14l4-13z" fill="#010223"/>
<path transform="translate(90,302)" d="m0 0 13 1 32 5 11 2-1 3-7-1-3-1-5-1-40-6z" fill="#010123"/>
<path transform="translate(559,100)" d="m0 0v3l-7 8-7 5-3-1 1-3-1-3 5-3 1-2-2-1h8v-2h4z" fill="#010123"/>
<path transform="translate(202,731)" d="m0 0 5 1 3 4-2 6-7 1-3-3 1-7z" fill="#FCFCFB"/>
<path transform="translate(34,501)" d="m0 0h6l3 5-2 5-2 2-5-1-3-3 1-6z" fill="#FCFCFB"/>
<path transform="translate(461,410)" d="m0 0h3v2l-20 8-11 3-6 1h-9l1-2 17-3 18-6z" fill="#FCFCFB"/>
<path transform="translate(462,401)" d="m0 0v3l-16 7-14 4-6 1h-8v-2l18-3 19-7z" fill="#FCFCFB"/>
<path transform="translate(476,268)" d="m0 0h3l6 14 4 18v2l4 1-3 1-4-3-5-19-5-12z" fill="#010123"/>
<path transform="translate(440,239)" d="m0 0 5 1 13 12 5 6v2h-2l-5-5-8-7-8-3-1-4z" fill="#010123"/>
<path transform="translate(208,681)" d="m0 0 3 1v6l6 7-2 3v3l-12-12z" fill="#010129"/>
<path transform="translate(452,375)" d="m0 0h6l-1 4-15 7-4-2 2-4h5v-2z" fill="#01012F"/>
<path transform="translate(232,345)" d="m0 0h5l3 4-1 5-4 3-5-2-1-7z" fill="#FCFCFB"/>
<path transform="translate(532,55)" d="m0 0 7 1 8 6 7 6-4 3-6 2v-2l3-3h2v-2l-6-2v-2l-6-1-4-2-1 4z" fill="#010124"/>
<path transform="translate(378,385)" d="m0 0 10 2 17 3 9 1v3l-15-1-21-5z" fill="#FCFCFB"/>
<path transform="translate(454,368)" d="m0 0h2v3l-16 8-9 3-10 1v-3l14-3 15-6z" fill="#FCFCFB"/>
<path transform="translate(456,557)" d="m0 0 10 1v2l16 1 21 1-4 2h-17l-32-5v-1z" fill="#010223"/>
<path transform="translate(113,533)" d="m0 0 2 1-3 7-3 4-7-2-11 1-4 2h-5v2l-7 1-1-2 27-9 3 2 6-1z" fill="#040526"/>
<path transform="translate(447,286)" d="m0 0 4 1 3 11v9l-1 7h-1l-1-10-2 2-3-15-1-3h2z" fill="#010223"/>
<path transform="translate(640,245)" d="m0 0h6l3 3-1 5-3 3-5-1-2-2v-6z" fill="#FCFCFB"/>
<path transform="translate(598,100)" d="m0 0 1 3-2 3-10 5-1 3h-2l-2 5-3 3-1 4-3 1-1 2-2-1 16-24 8-1z" fill="#010123"/>
<path transform="translate(591,152)" d="m0 0 4 2 5 12 6 7 2 2-3 3-7-7-6-12z" fill="#01012B"/>
<path transform="translate(181,359)" d="m0 0 1 2-2 19-1 8v27l1 9-2 2-1-5v-35l3-26z" fill="#010223"/>
<path transform="translate(335,314)" d="m0 0h2l2 11-1 10-3 9v2h-2l-2 6-3 1-3 4-3-1h2l2-4 6-9 3-9z" fill="#010223"/>
<path transform="translate(626,131)" d="m0 0 2 2v15l-2 2h-6l-2-6h-2v-2h8z" fill="#010131"/>
<path transform="translate(579,675)" d="m0 0h5l3 3-1 5-3 3-5-1-2-3 1-5z" fill="#FCFCFB"/>
<path transform="translate(549,214)" d="m0 0 5 2 2 4-3 5-4 1-4-4 1-6z" fill="#FCFCFB"/>
<path transform="translate(524,712)" d="m0 0 7 2 8 8-3 4-5-1-7-12z" fill="#01012E"/>
<path transform="translate(541,710)" d="m0 0 4 2 6 8v2l-4-2-1 6-4-5-5-7h2v-2h2z" fill="#010123"/>
<path transform="translate(61,361)" d="m0 0h6l2 3v5l-3 3-5-1-2-2 1-7z" fill="#FCFCFB"/>
<path transform="translate(424,339)" d="m0 0h2v2l-2 2v3l-9 3-2-1v-4l-9 1-2-4h15z" fill="#010123"/>
<path transform="translate(360,368)" d="m0 0 12 6v2h2l-1 5-5-1-6-3-1-3 1-4-3-1z" fill="#010123"/>
<path transform="translate(693,562)" d="m0 0h2l3 6v5h-2l-2-6v-2l-5 4-4 5 4 4h-9l2-5 4-6z" fill="#010123"/>
<path transform="translate(391,295)" d="m0 0 1 3-1 9 3 5v4l7 2 2 3 7 2h7l-3 2h-9l-8-4-6-7-2-5v-7z" fill="#010223"/>
<path transform="translate(739,283)" d="m0 0 6 1 2 3-1 4-4 3-5-2-1-6z" fill="#FCFCFB"/>
<path transform="translate(578,265)" d="m0 0 3 4 3 7v5l4 1 2 4-4-1v-3l-8 1v2h-2l-1 9-2-1v-6l5-6 1-5 1-4-2-2z" fill="#010123"/>
<path transform="translate(683,660)" d="m0 0 6 1 1 7-4 3-5-1-1-7z" fill="#FCFCFB"/>
<path transform="translate(683,226)" d="m0 0h5l5 8 4 4 3-1-2-8 4-2 1 5-2 7-4 2-2-1v-2l-4-1-4-6-6-2z" fill="#010123"/>
<path transform="translate(726,380)" d="m0 0h21v4h-21z" fill="#FCFCFB"/>
<path transform="translate(450,299)" d="m0 0h1l1 5v13l-3 8-3 1v-9l3-11z" fill="#01012F"/>
<path transform="translate(59,455)" d="m0 0 3 1 3 4-2 4-6 2-4-4 2-5z" fill="#FCFCFB"/>
<path transform="translate(448,352)" d="m0 0 2 2-9 6-10 4-11 2-1-3 16-4z" fill="#FCFCFB"/>
<path transform="translate(437,42)" d="m0 0 2 1v3l5-2 2 6-5 6-3-1-1 5h-1l-2-11h6l2 1-1-2h-5z" fill="#010123"/>
<path transform="translate(270,744)" d="m0 0h10l2 8h-12l-1-1z" fill="#010126"/>
<path transform="translate(507,712)" d="m0 0h2l-2 6-4 8-5-1-2-4 7-6z" fill="#010123"/>
<path transform="translate(509,405)" d="m0 0 6 1 1 1v6l-2 2h-6l-2-3 1-5z" fill="#FCFCFB"/>
<path transform="translate(326,208)" d="m0 0 2 2-3 5-5 1 1 4h-2l-3 6-4 1-2 4h-2v2l-2-1 8-11 9-10z" fill="#010123"/>
<path transform="translate(409,170)" d="m0 0h5l-4 1-1 3h-12l-11 1v2l-4 1-7 2h-5l2-2 17-5z" fill="#010223"/>
<path transform="translate(498,753)" d="m0 0h5l5 10 1 5-5-3-7-7z" fill="#01012C"/>
<path transform="translate(721,545)" d="m0 0 9 6 9 10 5 11-2 1v-3h-2l-3-8-3-3v-2h-2l-4-4-5-1-2-2-4-2z" fill="#010123"/>
<path transform="translate(497,198)" d="m0 0 4 2 10 9 8 8 6 9h-3l-1-3-4-4-4-5-3-3-8-4z" fill="#010123"/>
<path transform="translate(692,565)" d="m0 0h2l2 8-3 3h-3l-1 2-5-5 5-5z" fill="#FCFCFB"/>
<path transform="translate(89,505)" d="m0 0 4 1 2 5-4 4-5-1-3-3 4-5z" fill="#FCFCFB"/>
<path transform="translate(72,453)" d="m0 0 5 1 3 5v3h-11l1-8z" fill="#FCFCFB"/>
<path transform="translate(57,499)" d="m0 0 5 2 8 4-4 1 2 4 1 3-9 4-3-1 1-2 5-1 1-4-5-4-2-1-1-4z" fill="#010123"/>
<path transform="translate(485,411)" d="m0 0h6l2 1 1 4-2 4-5 1-4-5z" fill="#FCFCFB"/>
<path transform="translate(498,388)" d="m0 0 4 1 2 2v5l-2 2h-6l-2-3 1-5z" fill="#FCFCFB"/>
<path transform="translate(406,780)" d="m0 0 2 1v12l-1 1h-7l2-11h3z" fill="#010131"/>
<path transform="translate(213,623)" d="m0 0 3 1 1 4-7 8-5-1 2-5z" fill="#010223"/>
<path transform="translate(99,604)" d="m0 0 6 1h11l3 9 2 7v6l-3 4v-7l-2-6 1-3-2-6-2-1-12-1v-2z" fill="#010223"/>
<path transform="translate(466,504)" d="m0 0 6 1 2 5-3 4h-5l-2-2v-6z" fill="#FCFCFB"/>
<path transform="translate(407,222)" d="m0 0 3 1-1 17-4-1 2-6-4-1 3-1v-2l-9-1v-2l4-2h6z" fill="#010131"/>
<path transform="translate(524,77)" d="m0 0h8l5 1 2-1 1 4-1 2 2 1-5 2-3-6-2-1h-6l-2 2-1 6-5-5 1-3z" fill="#01012A"/>
<path transform="translate(72,509)" d="m0 0 6 1 2 3-4 6-4-1-4-4 1-3z" fill="#FCFCFB"/>
<path transform="translate(427,416)" d="m0 0h11l-2 4-18 3 2-5z" fill="#01012D"/>
<path transform="translate(397,355)" d="m0 0 15 2-2 1v2l-3 2h-8l-5-1 1-4z" fill="#010223"/>
<path transform="translate(153,109)" d="m0 0 1 2-5 2h-3v2h-2l-1 3 1 1-5 5-3 2 1-4-4-1 8-7 8-4z" fill="#010123"/>
<path transform="translate(531,753)" d="m0 0h5l1 5-7 6-6 3 2-5z" fill="#010223"/>
<path transform="translate(270,725)" d="m0 0h10v7h-11v-6z" fill="#010124"/>
<path transform="translate(151,654)" d="m0 0 5 1-1 3h-9v8l-5-1-1-5 4-4z" fill="#010123"/>
<path transform="translate(579,614)" d="m0 0 1 2h-2v2h-2l-2 5-4 1v2h-2l-1 3-1 2-7 2-4 1 5-5 14-11z" fill="#010123"/>
<path transform="translate(47,466)" d="m0 0h5l2 3-1 6-1 1h-5l-3-6z" fill="#FCFCFB"/>
<path transform="translate(11,362)" d="m0 0 5 1 2 2-1 6-1 1h-5l-3-4 2-5z" fill="#FCFCFB"/>
<path transform="translate(122,161)" d="m0 0 2 3 5 10v-3l-3-9 6 4-1 4 3 1-2 7-5-1-5-10z" fill="#010123"/>
<path transform="translate(157,126)" d="m0 0h12v1l-11 1-4 1-1 3-5 5-3 2-2 6-1 8h-1v-9l3-8 4-5z" fill="#010223"/>
<path transform="translate(490,105)" d="m0 0 5 1 6 8 10 6 2 2-6-1-7-3-4-4-3-5-3-1-4 1z" fill="#010123"/>
<path transform="translate(302,742)" d="m0 0h8v10h-6l-2-3z" fill="#01012B"/>
<path transform="translate(147,566)" d="m0 0 5 2 1 5-3 3h-5l-2-3 1-5z" fill="#FCFCFB"/>
<path transform="translate(57,505)" d="m0 0 5 2 3 2-2 5-5 1-4-4 1-4z" fill="#FCFCFB"/>
<path transform="translate(313,98)" d="m0 0 2 2 5 14-1 10 2 2 6 1v2l-5 1-2-1v-2l-4-2-1-5 2-6-4-13z" fill="#010123"/>
<path transform="translate(282,744)" d="m0 0h8v6l6 1v1h-13l-1-1z" fill="#010123"/>
<path transform="translate(223,693)" d="m0 0 2 3 3 6-5 2-6-1-3-6h2l1-3 1 4 4-2z" fill="#2A2951"/>
<path transform="translate(170,438)" d="m0 0h1l3 17v3h-2l-1-2-1 2h-2l-3-12v-4l3 1 2 9z" fill="#010223"/>
<path transform="translate(473,423)" d="m0 0h6l2 3-1 5-5 2-4-4z" fill="#FCFCFB"/>
<path transform="translate(330,394)" d="m0 0 5 3 13 9 5 3-4 1-8-4-3-1v-3h-5l-3-5z" fill="#010223"/>
<path transform="translate(618,146)" d="m0 0 2 4 5-1-2 4-2 7 1 11 3 9-4-1-2-7v-20z" fill="#FCFCFB"/>
<path transform="translate(227,109)" d="m0 0 7 3 11 13 6 9-4-1-3-4-1-3-6-4v-4l-3-1v-3l-4-1-3-2z" fill="#010223"/>
<path transform="translate(493,725)" d="m0 0 2 1-2 5v3l3 1 1-3h4v5l-5 1h-7l1-8z" fill="#010126"/>
<path transform="translate(226,619)" d="m0 0 4 2 11 9 16 11-3 1-6-4-11-7-3-2v-3l-4-1v-2l-4-1z" fill="#010223"/>
<path transform="translate(755,380)" d="m0 0h19v3l-2 1-14 1-3-3z" fill="#010123"/>
<path transform="translate(386,323)" d="m0 0 3 2 2-2 8 5 5 2-4 2-1 2-5-2-6-4-3-4z" fill="#010124"/>
<path transform="translate(209,282)" d="m0 0h1v8l-2 1-3 7h-3l-1 6-4 7-2-1 10-21z" fill="#010123"/>
<path transform="translate(458,206)" d="m0 0 13 7 1 3-8-2-5-4-4 8-3 2 1-5z" fill="#010223"/>
<path transform="translate(282,704)" d="m0 0h16l8 2v1l-10 1-22-1v-1h8z" fill="#020132"/>
<path transform="translate(229,691)" d="m0 0 1 3 5 1-2 4-7 7h-6l-2-3h6l3-2-2-4h2l-1-3h2l1 1z" fill="#010124"/>
<path transform="translate(745,414)" d="m0 0 5 2v18h-2v-17h-9v14h-9v-1h8v-14z" fill="#010223"/>
<path transform="translate(197,112)" d="m0 0 5 5 6 10 2 9-4-4-2-7-2-1v-2h-2l-1 4-4-6 4 1 1-3-3-3z" fill="#010123"/>
<path transform="translate(438,743)" d="m0 0 4 2-1 49h10v5l-1-4h-10l-1-49z" fill="#010123"/>
<path transform="translate(455,694)" d="m0 0 1 3-3 4v5l2 2h6l3-4-2-6h3l1 3v7l-4 2h-9l-3-1v-11h3z" fill="#010123"/>
<path transform="translate(83,490)" d="m0 0h6l-2 5-5 3h-6v-5z" fill="#010131"/>
<path transform="translate(541,726)" d="m0 0 3 4 1 2v6h-11v-8h2v4l6-1z" fill="#01012B"/>
<path transform="translate(270,715)" d="m0 0h10v7h-10z" fill="#010129"/>
<path transform="translate(97,495)" d="m0 0h5l2 6-3 4-5-1-1-1 1-7z" fill="#FCFCFB"/>
<path transform="translate(497,421)" d="m0 0h5l2 2v5l-2 2h-6l-1-7z" fill="#FCFCFB"/>
<path transform="translate(341,744)" d="m0 0 2 4 1 11-1 1h-7l1-5 1-1 1-7z" fill="#010131"/>
<path transform="translate(270,735)" d="m0 0h10v6l-10 1-1-1v-5z" fill="#010223"/>
<path transform="translate(186,703)" d="m0 0h9l1 1v6h-10z" fill="#010131"/>
<path transform="translate(163,656)" d="m0 0 4 1 7 8-4 1-1 2-8-7z" fill="#010223"/>
<path transform="translate(46,372)" d="m0 0 2 3 7 8-1 2-4-1 1 4-7-6-2-4 4-1z" fill="#010223"/>
<path transform="translate(367,306)" d="m0 0h5l5 15 1 4h-2l-4-8-1-7-4 1-3 3-1-7z" fill="#010123"/>
<path transform="translate(424,290)" d="m0 0 5 5 2 5v9l-2-3-2-7-11-1v-1l5-1z" fill="#010123"/>
<path transform="translate(360,282)" d="m0 0 2 1-3 21h-8v-2l6-2v-13z" fill="#010123"/>
<path transform="translate(625,211)" d="m0 0 1 4h-10v3h-2v2l-4 1-1 4-6 1 6-7 6-6h7z" fill="#010223"/>
<path transform="translate(522,591)" d="m0 0 4 2 1 3-2 4-5 1-3-3 1-5z" fill="#FCFCFB"/>
<path transform="translate(170,552)" d="m0 0 3 3 10 15 2 4h-5v-2h-2l-3-9-5-6z" fill="#010223"/>
<path transform="translate(372,385)" d="m0 0 6 1v2l7 1 14 3-4 2h-8v-2l-3 1v-2h-11l1-3-2-1z" fill="#010123"/>
<path transform="translate(443,347)" d="m0 0 2 2-10 5-12 4h-5v-2l21-7z" fill="#FCFCFB"/>
<path transform="translate(170,666)" d="m0 0h5l2 4-4 5-1 2h-11l1-2 8-1z" fill="#01012F"/>
<path transform="translate(641,408)" d="m0 0 5 1 1 1v5l-5 3-4-3 1-5z" fill="#010123"/>
<path transform="translate(129,388)" d="m0 0h1v40l-2-1-1-11v-13z" fill="#010223"/>
<path transform="translate(388,377)" d="m0 0 12 2 13 2 1 2h-12l-14-3z" fill="#FCFCFB"/>
<path transform="translate(802,318)" d="m0 0h1l6 32v7l-3-3-2-24h-2z" fill="#010123"/>
<path transform="translate(398,274)" d="m0 0 4 1h-3v4l-7 2-3 3 1 3-3 3-1-3-2 3h-2l2-5 8-8z" fill="#010123"/>
<path transform="translate(246,274)" d="m0 0h1v7l-3 7h-2l-4 16-1 2h-2l2-9 7-19z" fill="#010223"/>
<path transform="translate(295,728)" d="m0 0h3v2h2v11l-6-1v-10z" fill="#01012F"/>
<path transform="translate(68,593)" d="m0 0 4 1v2l2 1-10 5h-11v-2l7-1 6-3z" fill="#010123"/>
<path transform="translate(667,266)" d="m0 0 5 5 2 3-5-2v-2l-5 1v3l-7 1-2 3-8 1 5-4 13-7z" fill="#010223"/>
<path transform="translate(656,494)" d="m0 0 14 6-4 1-7-3-2 4-1 4h-2l-2 5-2-1z" fill="#010223"/>
<path transform="translate(687,283)" d="m0 0 14 3h10l13-3-1 3-6 2h-21l-7-2z" fill="#010223"/>
<path transform="translate(341,272)" d="m0 0 2 1-5 25-2-1v-9l4-14z" fill="#FCFCFB"/>
<path transform="translate(251,134)" d="m0 0 4 4v2l2 1-1 1v7l3 3 5 2 2 6-5-2-1-4-5-1-2-4v-8z" fill="#010223"/>
<path transform="translate(275,109)" d="m0 0 5 1 1 6 4-1 3 1v2l-6 1-1 2-3-3v-2l-3-1z" fill="#010123"/>
<path transform="translate(30,474)" d="m0 0 3 2v9l-6 3-1 2-5-1-6-5v-6l2 4 4 4 7-1 2-2z" fill="#010123"/>
<path transform="translate(684,314)" d="m0 0h9l3 8-2 6h-2v2l-7-1v-1l7-2 1-1v-6l-3-3-7 1-3 5-3-4 3-2z" fill="#010223"/>
<path transform="translate(320,21)" d="m0 0 4 1 3 2v13l3 7v8l-2-3-4-13v-10l-4-3z" fill="#010123"/>
<path transform="translate(383,544)" d="m0 0v3l-2 4-4 1-1 2h-3v3h-3l-2 4-5 1 5-5 13-12z" fill="#010123"/>
<path transform="translate(140,485)" d="m0 0 2 4 9 25-5 2-1-2h3l-3-9-3-5-2-10z" fill="#010223"/>
<path transform="translate(663,467)" d="m0 0h1v8l-1 10h-1l-1 7 5 1v2l-6-2-2-1 1-9z" fill="#010223"/>
<path transform="translate(730,243)" d="m0 0 5 1 4 3 4 2-1 3h-6l-3-3-3-1-1-4z" fill="#010128"/>
<path transform="translate(506,102)" d="m0 0 7 6-3 1-1 2v-3l-3 1 3 3v2l-4-2-6-5 3-3h4z" fill="#010123"/>
<path transform="translate(549,56)" d="m0 0h5v2h2l3 6v3h-4l-7-8z" fill="#010130"/>
<path transform="translate(290,522)" d="m0 0 2 4 6 5 6 2h10l5-3-2 5-4 1-15-1v-2l-5-1v-2l-3-1z" fill="#010123"/>
<path transform="translate(383,475)" d="m0 0 5 2 5 5-5-1-4-1-4 2h-5l5-5z" fill="#010123"/>
<path transform="translate(252,333)" d="m0 0h2v2l3-1-3 11-3 9h-1v-8l2-3h-2z" fill="#010123"/>
<path transform="translate(418,40)" d="m0 0 5 1 7 9 1 5-4-2-7-9-2-1z" fill="#010123"/>
<path transform="translate(292,727)" d="m0 0h8v3h-2v-2h-3v8l-1 4 3 1-2 1v6l-3 1z" fill="#010123"/>
<path transform="translate(486,310)" d="m0 0h2v7l-4 14-3 1 4-20z" fill="#010123"/>
<path transform="translate(58,299)" d="m0 0 4 1 3 3h-6l-3-1-11 3h-5l-2 4-2 1 2-6 16-4z" fill="#010223"/>
<path transform="translate(235,289)" d="m0 0 1 4-4 17-5 2 3-11z" fill="#010223"/>
<path transform="translate(520,753)" d="m0 0h6l-3 9-3 5h-2z" fill="#010123"/>
<path transform="translate(189,652)" d="m0 0 5 2v5l-3 3-4-2-1-1v-5z" fill="#FCFCFB"/>
<path transform="translate(603,589)" d="m0 0 7 6 8 7 2 3h-7l-1-5-7-6v-2h-3v2l-3-1z" fill="#010123"/>
<path transform="translate(79,471)" d="m0 0 6 1 4 3-1 4-3 1v-2l-4-2-9-2v-1z" fill="#01012B"/>
<path transform="translate(439,451)" d="m0 0 6 1 1 4-4 4-4-1-1-6z" fill="#FCFCFB"/>
<path transform="translate(727,385)" d="m0 0h20l-2 3-11 1-6-1z" fill="#FCFCFB"/>
<path transform="translate(336,262)" d="m0 0 1 2-5 15-2 10-2-1 1-10 5-14z" fill="#FCFCFB"/>
<path transform="translate(276,61)" d="m0 0 4 2-13 4-4 5-1 2-4-1 5-7 7-4z" fill="#010223"/>
<path transform="translate(509,752)" d="m0 0 5 1 1 3v11l-4-4-2-7z" fill="#010123"/>
<path transform="translate(518,711)" d="m0 0 5 5 3 7v3h-5l-3-11z" fill="#010123"/>
<path transform="translate(425,658)" d="m0 0 5 1 1 5-3 3-5-2-1-4z" fill="#010223"/>
<path transform="translate(390,369)" d="m0 0 13 1 9 1v3h-9l-12-3z" fill="#FCFCFB"/>
<path transform="translate(404,257)" d="m0 0h4l-1 3-15 5h-3l2-4z" fill="#FCFCFB"/>
<path transform="translate(553,155)" d="m0 0 1 3-2 5-2 4-5 5-2 4h-2l1-5z" fill="#010123"/>
<path transform="translate(533,147)" d="m0 0 2 2-3 4-4 2-2 5 1 5 2 3-6-2-1-4 4-10 6-3z" fill="#010123"/>
<path transform="translate(282,715)" d="m0 0h2v15h4v-15h2v17h-8z" fill="#010223"/>
<path transform="translate(513,712)" d="m0 0h2v10l-2 4h-4l1-7z" fill="#010223"/>
<path transform="translate(192,666)" d="m0 0h1l1 6 4-1 5 3 2 4-1 5-2 2-1-11h-6l-1 2-3-2z" fill="#010123"/>
<path transform="translate(169,599)" d="m0 0 1 3-3 1-1 2h-2v2h-2v2l-5 1-2 4-6 4-2-1 3-3h2v-2l9-7z" fill="#010223"/>
<path transform="translate(415,516)" d="m0 0 6 1 4 5h-3l-1-2-6-1-2 3-3 1-2 4h-3l-1 2-2-2z" fill="#010123"/>
<path transform="translate(502,448)" d="m0 0h5l2 2-1 5-1 1h-5l-2-5z" fill="#FCFCFB"/>
<path transform="translate(190,422)" d="m0 0 4 1 2 4-3 4-5-1-1-5z" fill="#FCFCFB"/>
<path transform="translate(187,642)" d="m0 0h9v5l-2 1h-7l-1-5z" fill="#010125"/>
<path transform="translate(105,505)" d="m0 0 13 1 4 2 7-1-3 4-6 1-8-4-5-1z" fill="#010123"/>
<path transform="translate(186,274)" d="m0 0h2l2 2h3l-11 21-1-4 6-12z" fill="#010123"/>
<path transform="translate(157,108)" d="m0 0h12l12 4 5 3-2 1-10-4-18-2z" fill="#010223"/>
<path transform="translate(497,779)" d="m0 0 9 2 6 1h15l-3 2-3 1-15-1-8-3z" fill="#010223"/>
<path transform="translate(531,659)" d="m0 0 2 3 2 4-1 10 3 4 7-1 2-1-1 3-2 1h-8l-1-3h-2l-2-4 3-8-2-4z" fill="#010223"/>
<path transform="translate(92,600)" d="m0 0 4 1-1 2h-5v2h-2v4h-2v2l-6 3-3-1 13-12z" fill="#010223"/>
<path transform="translate(284,323)" d="m0 0h1v10l-2 5-1 11-3 5h-1l1-8z" fill="#010123"/>
<path transform="translate(505,309)" d="m0 0h2l-1 13-3 10h-2l1-8z" fill="#FCFCFB"/>
<path transform="translate(270,293)" d="m0 0h2l-1 3h-2l-1 4-3 1-3 5-6 5 2-6 9-10z" fill="#010223"/>
<path transform="translate(523,54)" d="m0 0h8l-1 2-10 2-8 6-3-1 4-5 6-3z" fill="#010223"/>
<path transform="translate(496,34)" d="m0 0h2v3h-2l-1 9-2 6 7 2-1 2-9-2 2-10z" fill="#010223"/>
<path transform="translate(401,683)" d="m0 0h13v1l-5 1h-7v17l-1 11h-1v-29z" fill="#010223"/>
<path transform="translate(396,650)" d="m0 0h1l3 21h-14l-7-1v-1h16l2-1-1-10z" fill="#010223"/>
<path transform="translate(760,610)" d="m0 0 2 1-12 20-4 4 1-5 2-5 4-4 1-3h2l2-5z" fill="#010123"/>
<path transform="translate(425,606)" d="m0 0 5 1 1 5-2 2h-5l-2-4z" fill="#010223"/>
<path transform="translate(513,588)" d="m0 0h1l1 8 2-1 2 5-4-1-2 3h-5l2-3 2-10z" fill="#010123"/>
<path transform="translate(145,565)" d="m0 0h2v2l-3 2-1 4h-12l-1 4-3-7 1-1h11l2 1 2-4z" fill="#010123"/>
<path transform="translate(158,386)" d="m0 0h1v32l-2-1-1-5v-10l1-14z" fill="#010223"/>
<path transform="translate(513,310)" d="m0 0h2v8l-4 17-3 1 4-18z" fill="#FCFCFB"/>
<path transform="translate(225,315)" d="m0 0h1v9l-2 3-2 12h-2v3h-2l4-17z" fill="#010223"/>
<path transform="translate(653,211)" d="m0 0 1 3-4 1v3l-3 2-3 4-9 3 5-5 11-10z" fill="#010123"/>
<path transform="translate(282,735)" d="m0 0h8l1 5-6 2-3-1z" fill="#010223"/>
<path transform="translate(424,588)" d="m0 0h6l1 5-3 3-4-1-1-1v-5z" fill="#010123"/>
<path transform="translate(325,294)" d="m0 0 5 1 4 7 1 5v5l-2-3-6-11z" fill="#010123"/>
<path transform="translate(590,130)" d="m0 0 1 3-8 1-1 7 5 1v3l-9-3 1-7 3-3z" fill="#010223"/>
<path transform="translate(658,87)" d="m0 0 5 3 14 12 1 2-5-2-5-5-4-1-4-4v-2h-2z" fill="#010123"/>
<path transform="translate(341,21)" d="m0 0 2 2-2 3 1 7 8 4 3 5h-3v-3l-8-2-2-5h-2v-6z" fill="#010223"/>
<path transform="translate(455,28)" d="m0 0 2 3 1 4-7 9h-1l1-7 1-2-2-1 5-2z" fill="#010123"/>
<path transform="translate(424,625)" d="m0 0h5l2 2-1 5h-6l-2-2 1-4z" fill="#010223"/>
<path transform="translate(103,402)" d="m0 0 2 1-1 1v7l3 2 5-1 2-1v3l-6 2-5-2-2-4h-3v-2h2l2-5z" fill="#010123"/>
<path transform="translate(489,349)" d="m0 0 1 4-6 9-5 6-1-4 9-12z" fill="#FCFCFB"/>
<path transform="translate(356,306)" d="m0 0h3l2 12-2-1-3-5-2-1-1 3h-1v-7z" fill="#010223"/>
<path transform="translate(324,263)" d="m0 0 3 1-4 13-1 6-3-3 3-12z" fill="#FCFCFB"/>
<path transform="translate(398,212)" d="m0 0h12v10h-3l-1-5 1-3-19 1 4-2z" fill="#010123"/>
<path transform="translate(273,660)" d="m0 0 1 3-1 5 1 6-2 4-4 2-6-1-3-3 2-2 3 3 6-1 1-1v-6l-1-3z" fill="#010223"/>
<path transform="translate(650,662)" d="m0 0 3 4-7 6-4-2-2-2 9-5z" fill="#010124"/>
<path transform="translate(546,639)" d="m0 0 4 2-4 2-4 4-3-1-5 2v2h-2l-1 2v-4l12-7z" fill="#010223"/>
<path transform="translate(341,538)" d="m0 0 3 1-8 8-1 3v7l3 5-4-2-1-4-2-1 3-9 2-4z" fill="#010123"/>
<path transform="translate(188,523)" d="m0 0 3 4 11 18-4 1-2-5v-3h-2l-5-9-1-1z" fill="#010223"/>
<path transform="translate(689,473)" d="m0 0 3 2v6l-2 5-8 2-4-2v-6l4 4h5l3-4z" fill="#010223"/>
<path transform="translate(392,405)" d="m0 0h36l-2 2-16 1h-16v-2z" fill="#010223"/>
<path transform="translate(394,361)" d="m0 0 16 1 2 1v3l-10-1-8-2z" fill="#FCFCFB"/>
<path transform="translate(493,348)" d="m0 0 4 1 3 6 1 1 7-1h3l-2 3-9 1h-2l-1-4-2-1v-2l-2-1z" fill="#010223"/>
<path transform="translate(232,211)" d="m0 0 1 2-5 5h-2l-1 4-4 1v2l-5 4-2-1 14-14z" fill="#010123"/>
<path transform="translate(486,603)" d="m0 0 2 2-3 8h-2v6l1 5-3-4v-9l4-7z" fill="#010123"/>
<path transform="translate(635,542)" d="m0 0 9 5 8 6-4 1-3-3-7-3v-2h-4z" fill="#010123"/>
<path transform="translate(262,247)" d="m0 0 1 2-7 16h-3l-2 1 2-5z" fill="#010124"/>
<path transform="translate(212,690)" d="m0 0 5 5-2 3v3l-8-8 2-2z" fill="#010223"/>
<path transform="translate(615,640)" d="m0 0 4 4 1 2 3 1-1-5 3 1v4l2 2-6 3-3-3-2-5-2-3z" fill="#010123"/>
<path transform="translate(432,337)" d="m0 0 3 1-2 4-6 3-4-1-1-2 4-1v-2l4 1v-2z" fill="#01012E"/>
<path transform="translate(710,167)" d="m0 0 2 3-1 3h-2l-2 4-6-1-1 2h-4l-3 3-3-1 7-6h11z" fill="#010123"/>
<path transform="translate(229,658)" d="m0 0 2 1-1 3h2l-1 4h-3l-2 2h-5l-2-3 1-3 2 3 4 1 1-6z" fill="#010223"/>
<path transform="translate(489,616)" d="m0 0 4 5 7 1v4h-6l-4-2-2-3z" fill="#010123"/>
<path transform="translate(560,576)" d="m0 0 2 4-4 4-8 1-1-2-3-1 1-4 3 3h6l3-2z" fill="#010123"/>
<path transform="translate(716,521)" d="m0 0 5 1 16 7v1h-7v-2h-3v-2h-6z" fill="#010223"/>
<path transform="translate(721,450)" d="m0 0h1l2 16h1v6l-4 2z" fill="#010223"/>
<path transform="translate(340,358)" d="m0 0 4 2 3 3v2l4 2 2 2v3l-4-2-7-7z" fill="#FCFCFB"/>
<path transform="translate(759,333)" d="m0 0 2 3-1 13-3 5-5 5 2-6 4-9z" fill="#010223"/>
<path transform="translate(289,315)" d="m0 0 9 1 7 6v2h-2v-2h-5l-1-3h-6z" fill="#010223"/>
<path transform="translate(95,253)" d="m0 0h5l4 4h-3l-1-1h-10v2l-3-1v-2h-10v-1z" fill="#010123"/>
<path transform="translate(50,243)" d="m0 0 4 4 11 18-3 1v-3l-2-1-3-6-3-3-3-6z" fill="#010223"/>
<path transform="translate(230,670)" d="m0 0 2 2-1 2h-2l-1 4-2-1h-15l2-1 1-2 12-1z" fill="#010223"/>
<path transform="translate(85,590)" d="m0 0h3l2 6-2 2-1-3-5-1v2h-7l4-3z" fill="#010123"/>
<path transform="translate(337,514)" d="m0 0 1 4-4 2-1 2h-3l-1 4-4 2-3-1 12-11z" fill="#010123"/>
<path transform="translate(327,360)" d="m0 0 2 1-1 3 8 10 3 4h-3l-5-5v-3l-4-1-2-4 1-4z" fill="#010223"/>
<path transform="translate(70,299)" d="m0 0 17 2-3 2-8-1-7 2-3-2z" fill="#010223"/>
<path transform="translate(177,276)" d="m0 0h2v5l1 3h-2v-2l-2 1-2 7h-4l2-6z" fill="#010223"/>
<path transform="translate(413,16)" d="m0 0h5v2l6 1 7 3v2l5 2 2 4-11-7-10-4-4-1z" fill="#010223"/>
<path transform="translate(144,619)" d="m0 0h2v2h-2v3l-3 2h-3v3l-6 4h-2l2-4 11-9z" fill="#010223"/>
<path transform="translate(64,593)" d="m0 0 3 1-2 4-7 3-4-1 3-3z" fill="#FCFCFB"/>
<path transform="translate(698,277)" d="m0 0h16v3l-12 1z" fill="#010223"/>
<path transform="translate(591,141)" d="m0 0h16l6 1-3 2-15-1-4 1 1 7-2-3z" fill="#010223"/>
<path transform="translate(698,124)" d="m0 0 7 6 8 10h-3l-4-4v-2l-3-1-5-5z" fill="#010123"/>
<path transform="translate(611,741)" d="m0 0h2v5h-3v4l-5 1-6-2v-2h7l4-3z" fill="#010223"/>
<path transform="translate(554,208)" d="m0 0 5 2 4 6v8h-1l-1-6-5-1 1-4z" fill="#010223"/>
<path transform="translate(577,177)" d="m0 0 1 3-6 3h-2v3h-2l-1 7-3-2 2-5 4-6z" fill="#010223"/>
<path transform="translate(610,474)" d="m0 0h5l-1 2-5 1-2 10-3 6-1-2 2-5v-8h3v-2h2z" fill="#010223"/>
<path transform="translate(309,466)" d="m0 0h2l-1 3-1 2h-3v3h-4l1 3-4 2-3-1z" fill="#010223"/>
<path transform="translate(34,391)" d="m0 0 7 6 2 4 4 2 3 4-4-1-4-4v-2l-5-2v-2l-2-1z" fill="#010223"/>
<path transform="translate(418,361)" d="m0 0 2 1-1 5-3 3-4-2-1-6h6z" fill="#010130"/>
<path transform="translate(481,345)" d="m0 0h2l-2 6-8 11h-2l2-4z" fill="#FCFCFB"/>
<path transform="translate(356,53)" d="m0 0 4 3 1 13 1 5-3-1-1-2-1-15z" fill="#010124"/>
<path transform="translate(432,642)" d="m0 0h7l-4 2h-9v4h8v1h-11v-6z" fill="#010223"/>
<path transform="translate(202,546)" d="m0 0 4 5 9 12v3l-3-2v-2h-2l-3-5-5-7z" fill="#010223"/>
<path transform="translate(227,522)" d="m0 0 2 1 3 15-1 8-2-1-1-13z" fill="#010223"/>
<path transform="translate(464,335)" d="m0 0 1 2-7 10-3 4-3-1v-2l5-4 6-8z" fill="#FCFCFB"/>
<path transform="translate(167,295)" d="m0 0 2 4-6 10-1 5h-2l-1 2 1-5z" fill="#010223"/>
<path transform="translate(507,156)" d="m0 0 11 2h3l-2 5-9-3-4-3z" fill="#010223"/>
<path transform="translate(339,96)" d="m0 0 2 4 5 19h-3l-4-18z" fill="#010123"/>
<path transform="translate(211,605)" d="m0 0 8 6 6 7h-4l-3-3v-2h-4l-1-4-3-3z" fill="#010123"/>
<path transform="translate(767,530)" d="m0 0 5 1 2 3v6l-1 6h-6l4-5v-7z" fill="#010223"/>
<path transform="translate(213,494)" d="m0 0 2 2 3 14v4h-2l-2-6z" fill="#010223"/>
<path transform="translate(61,475)" d="m0 0 3 1v5h-2l-2 4-2 1 1-9z" fill="#01012B"/>
<path transform="translate(361,376)" d="m0 0 13 6-1 4-12-7z" fill="#FCFCFB"/>
<path transform="translate(552,324)" d="m0 0 1 2-7 14-1-2 2-9h2l1-4z" fill="#010223"/>
<path transform="translate(123,195)" d="m0 0 8 6 8 8-3 1-6-6v-2h-3l-3-3v-2l-2-1z" fill="#010223"/>
<path transform="translate(564,173)" d="m0 0 2 3 1 4-6 9-6-4 2-1 4 2 2-5v-7z" fill="#010123"/>
<path transform="translate(120,138)" d="m0 0h1v19h-2l-2-3 1-7z" fill="#010223"/>
<path transform="translate(568,134)" d="m0 0 1 3-3 6h-2l-1 3h-2l-2 5-2-1 10-15z" fill="#010223"/>
<path transform="translate(489,742)" d="m0 0h5v12l-3-3z" fill="#010123"/>
<path transform="translate(671,650)" d="m0 0 7 6v2l3 1 1 3h-3l-7-7-2-4z" fill="#010123"/>
<path transform="translate(578,644)" d="m0 0 4 3 7 2 4 6h-4l-1-5h-9z" fill="#010123"/>
<path transform="translate(224,559)" d="m0 0 8 6-6 3-1 3-4-5 1-2h3z" fill="#010123"/>
<path transform="translate(337,442)" d="m0 0 1 4-5 1-1 3h-2v3l-5 3-3-1 10-9z" fill="#010123"/>
<path transform="translate(459,227)" d="m0 0 5 3 7 6-4 1-8-6z" fill="#01012E"/>
<path transform="translate(426,171)" d="m0 0h9l11 2-1 2h-9l-8-2h-2z" fill="#010123"/>
<path transform="translate(316,32)" d="m0 0 5 2 4 13v3h-2l-1-8-2-1-2-5z" fill="#010123"/>
<path transform="translate(611,692)" d="m0 0 4 2 4 5-7-1-6 3 2-5 2-1z" fill="#01012A"/>
<path transform="translate(620,654)" d="m0 0 2 1 1 5-2 2-2 4-3-8v-3l3 1z" fill="#010223"/>
<path transform="translate(622,483)" d="m0 0h7l4 3v2l-6-2h-2-4v2l-3-1z" fill="#010223"/>
<path transform="translate(71,370)" d="m0 0 3 1-6 5h-8l1-3 5-1h3z" fill="#010223"/>
<path transform="translate(471,350)" d="m0 0v3l-9 11h-3l2-4z" fill="#FCFCFB"/>
<path transform="translate(490,340)" d="m0 0 7 3 4 2-5 3-1-3h-2l-3 3-2-4z" fill="#010223"/>
<path transform="translate(266,226)" d="m0 0 3 1-9 10-5 7-1-3 4-5 5-7z" fill="#010223"/>
<path transform="translate(550,105)" d="m0 0 4 1-1 4-5 4-3-4h2l2-4z" fill="#010130"/>
<path transform="translate(549,52)" d="m0 0 4 2 6 5 3 4-1 3h-2l-3-6v-2h-2v-2l-4-1z" fill="#010223"/>
<path transform="translate(540,742)" d="m0 0h5l-1 7-3 5-1-4z" fill="#010223"/>
<path transform="translate(197,735)" d="m0 0h1l2 6 5 1h3l2-4v5l-4 2-7-1-3-5z" fill="#010223"/>
<path transform="translate(473,729)" d="m0 0 1 2-1 15-3-1 1-14z" fill="#010223"/>
<path transform="translate(220,646)" d="m0 0h7l11 11-4 1-2-4-5-5-5-1-4 1z" fill="#010223"/>
<path transform="translate(203,638)" d="m0 0 3 1-1 4 6 7-1 3-7-7z" fill="#010123"/>
<path transform="translate(154,522)" d="m0 0 3 4 5 10v2h-4l-1-7-2-1z" fill="#010223"/>
<path transform="translate(345,436)" d="m0 0 5 1 3 3-4 1-7-1v2l-4-1z" fill="#010223"/>
<path transform="translate(357,412)" d="m0 0 6 2 5 2h5v2h-12l-5-5z" fill="#010123"/>
<path transform="translate(456,362)" d="m0 0 2 1 1 5-8 1-2-3 6-3z" fill="#010131"/>
<path transform="translate(514,318)" d="m0 0h1l1 9-2 9-4-1z" fill="#010223"/>
<path transform="translate(308,243)" d="m0 0 2 1-1 7 2 4-5-1-2-6z" fill="#010123"/>
<path transform="translate(678,235)" d="m0 0 1 4-4 3h-4v6h-2l1-8 6-3z" fill="#010123"/>
<path transform="translate(530,234)" d="m0 0 3 3 5 10-4-1-1-3-3-2z" fill="#010223"/>
<path transform="translate(191,180)" d="m0 0h1l2 7h7l1 2-7 1h-5l-1-7z" fill="#010223"/>
<path transform="translate(561,742)" d="m0 0h1v7l-2 7-3 6h-2l3-9z" fill="#010223"/>
<path transform="translate(524,712)" d="m0 0 7 2 3 4h-3l-2 4z" fill="#010124"/>
<path transform="translate(611,513)" d="m0 0 6 4 2 2-1 4-2-4-3-2-5 5-2-1z" fill="#010223"/>
<path transform="translate(79,457)" d="m0 0 5 1-4 7h-9l1-3h8z" fill="#010223"/>
<path transform="translate(467,370)" d="m0 0 4 2 7 9 1 4h-2l-9-12z" fill="#FCFCFB"/>
<path transform="translate(652,309)" d="m0 0 3 3 2 6 1 5v2l4 2-4 1-6-16z" fill="#010223"/>
<path transform="translate(178,248)" d="m0 0h2l-2 5-7 10h-1v-5h2l2-6 4-2z" fill="#010223"/>
<path transform="translate(700,240)" d="m0 0 4 2 10 7v1h-6l-8-9z" fill="#010223"/>
<path transform="translate(212,230)" d="m0 0 1 3-3 1-1 5-3 3-4-1 9-10z" fill="#010223"/>
<path transform="translate(574,117)" d="m0 0v3l-7 11-3 2 1-5 2-4h3l2-6z" fill="#010223"/>
<path transform="translate(253,100)" d="m0 0 3 1 3 5-5-1-4-1v2l-3-1-1-4 1 2z" fill="#010223"/>
<path transform="translate(212,655)" d="m0 0h4l-2 6 3 1-4 4-3-4z" fill="#010223"/>
<path transform="translate(160,643)" d="m0 0 8 1 1 4-6-3-5 3-1 2h-2l1-6z" fill="#010223"/>
<path transform="translate(453,578)" d="m0 0 3 1h-2l-2 4-3 9-2-1 1-8z" fill="#010223"/>
<path transform="translate(109,545)" d="m0 0 2 4 1 3v9l-3-1-1-10z" fill="#2A2B47"/>
<path transform="translate(178,502)" d="m0 0 2 3 6 13-4-1-4-9z" fill="#010223"/>
<path transform="translate(294,479)" d="m0 0 2 1-3 5-5 4-5 1 5-5z" fill="#010223"/>
<path transform="translate(296,399)" d="m0 0 1 4-2 18-2-3 1-16z" fill="#010223"/>
<path transform="translate(761,362)" d="m0 0 1 4-1 1-1 10 2 1h-7l2-1 2-11z" fill="#010223"/>
<path transform="translate(483,346)" d="m0 0h8l2 2-3 3-5-1h-3z" fill="#01012D"/>
<path transform="translate(271,275)" d="m0 0h3l-1 3-3 2h-3v2h-6l4-4z" fill="#010123"/>
<path transform="translate(600,123)" d="m0 0 2 2-3 5 1 4 1 2-7-1 4-9z" fill="#010223"/>
<path transform="translate(460,120)" d="m0 0 2 3 3 4-2 10-2 3 1-12-4-6h2z" fill="#010223"/>
<path transform="translate(623,95)" d="m0 0h2v5h11l-3 3h-6l-4-4z" fill="#010223"/>
<path transform="translate(501,718)" d="m0 0 3 3-1 3-5 1-2-4z" fill="#01012D"/>
<path transform="translate(642,692)" d="m0 0 4 1 6 3-2 2-6-2-6 2v-2z" fill="#010223"/>
<path transform="translate(197,685)" d="m0 0h5l-3 3-4 1v11l-4 1 2-1 1-14z" fill="#010223"/>
<path transform="translate(625,663)" d="m0 0h7l7 3 1 2h-5v-2h-7z" fill="#010223"/>
<path transform="translate(362,394)" d="m0 0 17 7 1 2-10-2v-2l-5-1-3-2z" fill="#010223"/>
<path transform="translate(562,391)" d="m0 0 4 5 6 12-2 1-3-5v-3h-2l-3-6z" fill="#010123"/>
<path transform="translate(514,293)" d="m0 0h1l2 8 4 3 3 2h-6l-2-3h-4v-5h2z" fill="#010223"/>
<path transform="translate(661,249)" d="m0 0 2 1 3 10-1 5h-2l-2-12z" fill="#010223"/>
<path transform="translate(299,243)" d="m0 0 1 3v4h-2l-1 4-4 8-1-3z" fill="#010223"/>
<path transform="translate(748,242)" d="m0 0h2v9l1 5-2 2-3-1 1-3z" fill="#010123"/>
<path transform="translate(378,77)" d="m0 0 5 5 8 6 2 2-3 1-9-6-3-5z" fill="#010223"/>
<path transform="translate(649,705)" d="m0 0 1 4-8 5h-8v-1l9-3z" fill="#010123"/>
<path transform="translate(213,706)" d="m0 0 4 2 7 2h6v2l-4 1-11-2v-2h-2z" fill="#010223"/>
<path transform="translate(170,680)" d="m0 0 4 2 3 5-4 1-1 2-3-1 2-3z" fill="#010223"/>
<path transform="translate(92,541)" d="m0 0m-3 1 3 1-5 3h-5v2l-7 1-1-2z" fill="#010223"/>
<path transform="translate(162,538)" d="m0 0 4 5 4 7-1 2-4-4v-2l-3-1z" fill="#010223"/>
<path transform="translate(104,526)" d="m0 0 3 1-3 2-8 8h-2v-3l4-1v-3l3-3z" fill="#010223"/>
<path transform="translate(357,496)" d="m0 0 2 1-3 5-5 2v2l-4-1z" fill="#010223"/>
<path transform="translate(533,481)" d="m0 0 5 4 2 4v7l-3 2v-10l-4-4z" fill="#010223"/>
<path transform="translate(213,456)" d="m0 0 1 4-2 13h-1l-1-7v-8h3z" fill="#010223"/>
<path transform="translate(696,394)" d="m0 0h5v2l4 2 1 1v7h-2l-2-8-8-2z" fill="#010223"/>
<path transform="translate(461,302)" d="m0 0 5 1v5h-6v-5z" fill="#010123"/>
<path transform="translate(224,235)" d="m0 0 1 2-4 3v7l1 3h-2v2h-2v-13z" fill="#010223"/>
<path transform="translate(638,145)" d="m0 0 5 1 1 3-2 2h-5v-5z" fill="#FCFCFB"/>
<path transform="translate(616,142)" d="m0 0 8 1-1 4-1 1 2 2h-4l-2-6h-2z" fill="#010125"/>
<path transform="translate(430,113)" d="m0 0 1 2 1 5 2 2-1 9h-1v-9l-3-1-1-7z" fill="#010223"/>
<path transform="translate(262,46)" d="m0 0h5l-4 3-4 1 3 6-4 1v-9z" fill="#010223"/>
<path transform="translate(356,25)" d="m0 0 2 1-1 6-1 2 1 7-3-3-1-4z" fill="#010223"/>
<path transform="translate(554,642)" d="m0 0h3v2h2l2 6h5l2 4-7-2-4-5z" fill="#010123"/>
<path transform="translate(746,534)" d="m0 0 5 1 5 3 2 5 3 3-5-1-2-7-5-1z" fill="#010123"/>
<path transform="translate(373,483)" d="m0 0 2 2-4 2-1 3h-4v2h-2v2l-4 1 5-6z" fill="#010223"/>
<path transform="translate(507,445)" d="m0 0 3 3 1 4-3 6-6-1v-1l6-2-1-5-4-2z" fill="#010223"/>
<path transform="translate(620,371)" d="m0 0 2 3v8l-5 1-1-5h2v3h2z" fill="#010223"/>
<path transform="translate(667,370)" d="m0 0h3l1 7-1 9-2-4z" fill="#010223"/>
<path transform="translate(397,354)" d="m0 0h9l6 1v2h-10l-5-2z" fill="#FCFCFB"/>
<path transform="translate(472,303)" d="m0 0h6v5h-6l-1-4z" fill="#010223"/>
<path transform="translate(369,269)" d="m0 0v3l-4 7-3 4 1-9h2l2-4z" fill="#010223"/>
<path transform="translate(321,252)" d="m0 0h3l2 4-6 2-4-2z" fill="#010223"/>
<path transform="translate(353,187)" d="m0 0h2l-1 5h-3l-1 2h-6l3-3z" fill="#010223"/>
<path transform="translate(281,178)" d="m0 0 1 3-6 3-2-1v3h-6l5-4z" fill="#010223"/>
<path transform="translate(646,161)" d="m0 0h1v11 3l-1 3-1-4h-3l3-10z" fill="#010223"/>
<path transform="translate(653,122)" d="m0 0 4 4 5 10v2h-2l-5-10v-2h-2z" fill="#010223"/>
<path transform="translate(364,47)" d="m0 0 4 3 2 4v4h-2v7h-1v-11l-4-4z" fill="#010223"/>
<path transform="translate(553,763)" d="m0 0 1 4-4 4-1 2-3 1-2 2-3 1 1-3 8-7z" fill="#010123"/>
<path transform="translate(534,742)" d="m0 0 4 1v6h-5v-6z" fill="#010223"/>
<path transform="translate(205,708)" d="m0 0 2 4 1 4-2 4-3-6 1-5z" fill="#010223"/>
<path transform="translate(163,698)" d="m0 0 2 2-2 4 5 2 3 5-2 2-2-5-5-2v-6z" fill="#010123"/>
<path transform="translate(444,679)" d="m0 0h6l-3 3h-15v-1z" fill="#010223"/>
<path transform="translate(678,663)" d="m0 0h2l1 7h7l-1 3-4 1-5-5z" fill="#010123"/>
<path transform="translate(555,655)" d="m0 0h1l1 7 3 2h7v2h-11l-2-6z" fill="#010223"/>
<path transform="translate(631,578)" d="m0 0 4 2-4 3v5l3 4-4-1-2-7 1-5z" fill="#010123"/>
<path transform="translate(42,553)" d="m0 0 5 1-1 5-5-1z" fill="#010223"/>
<path transform="translate(647,518)" d="m0 0 1 3-2 9-4 1 1-5z" fill="#010223"/>
<path transform="translate(595,450)" d="m0 0 1 3-2 4h-2l2 14-3-3v-12z" fill="#010223"/>
<path transform="translate(668,432)" d="m0 0h1l1 16-2 5-2-1z" fill="#010123"/>
<path transform="translate(158,316)" d="m0 0h1v9l-3 5h-2l2-9z" fill="#010223"/>
<path transform="translate(636,243)" d="m0 0h10v2l-7 2v7l-4-2z" fill="#010223"/>
<path transform="translate(564,78)" d="m0 0h1v10l-1 2h-2v-11z" fill="#010223"/>
<path transform="translate(254,58)" d="m0 0 3 1-3 6-5-1-3-2 7-1z" fill="#010123"/>
<path transform="translate(490,56)" d="m0 0 4 3-1 2h-3l-6 2-2-1 1-3h5z" fill="#010223"/>
<path transform="translate(470,32)" d="m0 0 2 3-5 3-7 1 1-3 7-2z" fill="#010123"/>
<path transform="translate(177,704)" d="m0 0 2 2-2 5h-2v-2l-3 1-1-5z" fill="#010127"/>
<path transform="translate(186,703)" d="m0 0h9l1 1v6l-4-1 2-3h-2v-2l-6 2z" fill="#010223"/>
<path transform="translate(698,692)" d="m0 0 2 1-13 13-1-3 8-7z" fill="#010123"/>
<path transform="translate(336,676)" d="m0 0 18 3-4 2-11-1-1-3z" fill="#010223"/>
<path transform="translate(625,604)" d="m0 0 4 1 2 3 3 2 5 6h-3l-11-11z" fill="#010223"/>
<path transform="translate(709,562)" d="m0 0 2 4 6 3v1h-9l-1-5z" fill="#010223"/>
<path transform="translate(245,490)" d="m0 0h2l3 5 7 3-1 2h-6l-1-3-4-4z" fill="#010223"/>
<path transform="translate(670,404)" d="m0 0h3v3h-2v17l-2 2v-17z" fill="#010223"/>
<path transform="translate(686,404)" d="m0 0h5v3l-17-1v-1z" fill="#010223"/>
<path transform="translate(495,388)" d="m0 0 3 1-3 3 1 5 6 1v1h-8l-2-2 1-8z" fill="#010223"/>
<path transform="translate(63,356)" d="m0 0h3v3h2l-1 3-9-2v-2z" fill="#01012F"/>
<path transform="translate(354,318)" d="m0 0 3 2v2h2v6l-2 2-3-8z" fill="#010223"/>
<path transform="translate(412,283)" d="m0 0 4 2-4 4-2 3-3-1 3-1-1-4-5-1v-1z" fill="#010123"/>
<path transform="translate(189,231)" d="m0 0h5l-6 8-2 2v-7h3z" fill="#010123"/>
<path transform="translate(348,154)" d="m0 0h5l-3 2h-2v2h-6l-4 1-2-2z" fill="#010123"/>
<path transform="translate(373,82)" d="m0 0 4 1 6 7 4 4-5-2-5-4z" fill="#010123"/>
<path transform="translate(495,81)" d="m0 0 2 1 1 12-5 2 1-2h2l-2-9z" fill="#010123"/>
<path transform="translate(144,684)" d="m0 0h14l4 1v5l-1-2h-2v-2l-15-1z" fill="#010223"/>
<path transform="translate(541,560)" d="m0 0 2 1-1 4-1 3h-3v2h-2l1-5z" fill="#010123"/>
<path transform="translate(502,409)" d="m0 0h4l3 7-5-1-3-3z" fill="#010223"/>
<path transform="translate(50,407)" d="m0 0 7 6 5 5-6-1-6-8z" fill="#010123"/>
<path transform="translate(414,356)" d="m0 0 4 1-2 4-4-1-2 2-3-1 3-1v-2z" fill="#020132"/>
<path transform="translate(348,353)" d="m0 0 7 6 4 4v2l-4-2-7-8z" fill="#FCFCFB"/>
<path transform="translate(109,327)" d="m0 0 5 5 6-1 2-1-1 4-7 1-5-4z" fill="#010223"/>
<path transform="translate(502,299)" d="m0 0 1 3h7v2l-3 1h-3-4z" fill="#010124"/>
<path transform="translate(139,210)" d="m0 0 3 1 2 6v4l-4-1z" fill="#010123"/>
<path transform="translate(688,176)" d="m0 0 2 1-12 10-2-1 9-9z" fill="#010223"/>
<path transform="translate(345,121)" d="m0 0h2l4 17h-2l-1-8h-2z" fill="#010223"/>
<path transform="translate(496,64)" d="m0 0v3l2 1-1 4-2 2-3-1 2-8z" fill="#010123"/>
<path transform="translate(382,31)" d="m0 0 2 1-4 5h-2l-2 5-3-1 6-8z" fill="#010223"/>
<path transform="translate(496,742)" d="m0 0 5 1v6h-4z" fill="#010223"/>
<path transform="translate(295,742)" d="m0 0 3 1v7l-4 1-2-2 2-1z" fill="#020132"/>
<path transform="translate(534,730)" d="m0 0h2v4h3l1 4h-6z" fill="#010223"/>
<path transform="translate(263,729)" d="m0 0 2 1v8h-3l-1-8z" fill="#020132"/>
<path transform="translate(660,670)" d="m0 0 2 4v6l-3 1-1 4 1-10z" fill="#010223"/>
<path transform="translate(687,630)" d="m0 0 12 3v1h-14z" fill="#010223"/>
<path transform="translate(426,523)" d="m0 0 2 2 1 6-2 8h-1z" fill="#010223"/>
<path transform="translate(159,431)" d="m0 0h1l2 14v5l-3-1z" fill="#010223"/>
<path transform="translate(482,421)" d="m0 0h3v5l-2 1-1 4-2-1-1-8 3 1z" fill="#010123"/>
<path transform="translate(659,330)" d="m0 0h4l-1 3 1 6v6l-2-4z" fill="#010123"/>
<path transform="translate(550,281)" d="m0 0h1l2 10v7h-2l-2-12z" fill="#010223"/>
<path transform="translate(94,217)" d="m0 0 1 4-3 6-3-4z" fill="#010124"/>
<path transform="translate(357,200)" d="m0 0 4 1v3l1 4-5-1-1-4z" fill="#010123"/>
<path transform="translate(162,150)" d="m0 0 4 2-1 6-3-1-2-5z" fill="#020132"/>
<path transform="translate(305,99)" d="m0 0h1v6l-4-1h-7l2-4 7 1z" fill="#010223"/>
<path transform="translate(391,92)" d="m0 0h3v3l4 2-4 1-7-3 1-2z" fill="#010223"/>
<path transform="translate(241,71)" d="m0 0 2 4 5 2v12h-1l-1-10-5-2z" fill="#010223"/>
<path transform="translate(512,719)" d="m0 0h2v6l-5 1 1-5z" fill="#01012D"/>
<path transform="translate(684,706)" d="m0 0 2 1-8 8-4 2v-3l3-1 3-5z" fill="#010123"/>
<path transform="translate(241,694)" d="m0 0h1v7l-3 4v1h-5l6-8z" fill="#010223"/>
<path transform="translate(378,683)" d="m0 0h15l1 2-6 1-10-1z" fill="#010223"/>
<path transform="translate(170,672)" d="m0 0 1 2 2 1-1 2h-11l1-2 8-1z" fill="#010223"/>
<path transform="translate(182,671)" d="m0 0 7 1v2l-11 1 1-3z" fill="#010223"/>
<path transform="translate(10,440)" d="m0 0 4 3 8 1-1 2h-9v-2h-2z" fill="#010223"/>
<path transform="translate(369,334)" d="m0 0 7 6 3 3-1 2-5-3-4-5z" fill="#010123"/>
<path transform="translate(192,318)" d="m0 0 1 4-2 5-2 7-2 1 2-9z" fill="#010223"/>
<path transform="translate(394,279)" d="m0 0 4 2-8 5-3-2z" fill="#010130"/>
<path transform="translate(215,272)" d="m0 0 1 4-1 5-5 1 2-5z" fill="#010223"/>
<path transform="translate(184,152)" d="m0 0h1v8l2 1-3 3-4-6 3-1z" fill="#010124"/>
<path transform="translate(668,151)" d="m0 0 2 3 1 2v6h-5z" fill="#010123"/>
<path transform="translate(494,141)" d="m0 0 1 3-4 8-5-2 4-1 2-5z" fill="#010223"/>
<path transform="translate(495,126)" d="m0 0 1 2v6l1 5-2-1-3-5 1-6z" fill="#010123"/>
<path transform="translate(622,60)" d="m0 0 5 2 6 4v2l-4-1-3-1v-3h-3z" fill="#757687"/>
<path transform="translate(340,710)" d="m0 0 3 3-3 1v16h-1v-19z" fill="#020132"/>
<path transform="translate(369,708)" d="m0 0 2 1-2 3 1 7-5-2 1-7z" fill="#010223"/>
<path transform="translate(284,642)" d="m0 0h5l9 5v2l-6-2-8-4z" fill="#010223"/>
<path transform="translate(338,562)" d="m0 0 8 3 8 1v1h-12l-4-2z" fill="#010223"/>
<path transform="translate(652,554)" d="m0 0 5 2 4 2-2 5-2 1 1-5-4-1z" fill="#010223"/>
<path transform="translate(399,530)" d="m0 0 1 3-2 3-4 2-3-1z" fill="#010223"/>
<path transform="translate(460,413)" d="m0 0 2 1v3l-4 1h-8l2-2z" fill="#010124"/>
<path transform="translate(274,365)" d="m0 0h2v5h-2v8l-3 1 2-10z" fill="#010223"/>
<path transform="translate(227,353)" d="m0 0h3l3 3 6-2-2 5h-5l-5-5z" fill="#010223"/>
<path transform="translate(476,268)" d="m0 0h3l3 6v3h-3z" fill="#010127"/>
<path transform="translate(282,210)" d="m0 0 2 1-10 10v-3l6-7z" fill="#010123"/>
<path transform="translate(195,138)" d="m0 0h1l1 8v7l-3 1z" fill="#010223"/>
<path transform="translate(447,78)" d="m0 0 1 4-2 6-2 2-2-1 2-5z" fill="#010123"/>
<path transform="translate(518,79)" d="m0 0h4v8l-5-5z" fill="#010130"/>
<path transform="translate(279,46)" d="m0 0 1 2-1 4-7 1-2-3 1-3 3 3 3-1z" fill="#010223"/>
<path transform="translate(401,741)" d="m0 0 3 1 2 5h-7z" fill="#010125"/>
<path transform="translate(404,717)" d="m0 0h1v8l-3 2h-7l1-2 7-2z" fill="#010223"/>
<path transform="translate(605,701)" d="m0 0 5 5 3 4-5-1-1-3-3-1z" fill="#010223"/>
<path transform="translate(220,685)" d="m0 0h7l2 3-5-1-6 3 1-4z" fill="#010223"/>
<path transform="translate(599,618)" d="m0 0 2 1-1 2v6l3 4-4-1-2-5z" fill="#010223"/>
<path transform="translate(612,578)" d="m0 0 1 3-2 2-1 7-4-4z" fill="#010123"/>
<path transform="translate(83,490)" d="m0 0h6l-2 5-2 1v-3l-5-1z" fill="#010124"/>
<path transform="translate(166,474)" d="m0 0h3l3 12-4-4-2-7z" fill="#010223"/>
<path transform="translate(725,444)" d="m0 0h1v14h-2l-1-9z" fill="#010223"/>
<path transform="translate(239,434)" d="m0 0 1 3-4 3h-2l-1 3-3-1 5-5z" fill="#010123"/>
<path transform="translate(66,357)" d="m0 0 4 1 3 3-3 2-1 4-1-8h-2z" fill="#010123"/>
<path transform="translate(644,290)" d="m0 0h2l2 6v2h2v6l-2-2-4-9z" fill="#010223"/>
<path transform="translate(505,135)" d="m0 0 1 3h-3l-1 4-4 1 2-6z" fill="#010223"/>
<path transform="translate(626,131)" d="m0 0 2 2v10l-3-1z" fill="#010223"/>
<path transform="translate(131,123)" d="m0 0 1 3-3 8h-2l-1 4-1-2 4-9z" fill="#010223"/>
<path transform="translate(473,125)" d="m0 0 1 4-7 5 1-6z" fill="#010223"/>
</svg>
